<?xml version="1.0" encoding="UTF-8" ?>
<svg version="1.1" width="30" height="30" xmlns="http://www.w3.org/2000/svg" shape-rendering="crispEdges">
<rect x="0" y="0" width="1" height="1" fill="#3F6021" />
<rect x="1" y="0" width="1" height="1" fill="#4B692F" />
<rect x="2" y="0" width="1" height="1" fill="#3F6021" />
<rect x="3" y="0" width="1" height="1" fill="#4B692F" />
<rect x="4" y="0" width="1" height="1" fill="#3F6021" />
<rect x="5" y="0" width="1" height="1" fill="#4B692F" />
<rect x="6" y="0" width="1" height="1" fill="#3F6021" />
<rect x="7" y="0" width="1" height="1" fill="#4B692F" />
<rect x="8" y="0" width="1" height="1" fill="#3F6021" />
<rect x="9" y="0" width="1" height="1" fill="#4B692F" />
<rect x="10" y="0" width="1" height="1" fill="#3F6021" />
<rect x="11" y="0" width="1" height="1" fill="#4B692F" />
<rect x="12" y="0" width="1" height="1" fill="#3F6021" />
<rect x="13" y="0" width="1" height="1" fill="#4B692F" />
<rect x="14" y="0" width="1" height="1" fill="#3F6021" />
<rect x="15" y="0" width="1" height="1" fill="#4B692F" />
<rect x="16" y="0" width="1" height="1" fill="#3F6021" />
<rect x="17" y="0" width="1" height="1" fill="#4B692F" />
<rect x="18" y="0" width="1" height="1" fill="#3F6021" />
<rect x="19" y="0" width="1" height="1" fill="#4B692F" />
<rect x="20" y="0" width="1" height="1" fill="#3F6021" />
<rect x="21" y="0" width="1" height="1" fill="#4B692F" />
<rect x="22" y="0" width="1" height="1" fill="#3F6021" />
<rect x="23" y="0" width="1" height="1" fill="#4B692F" />
<rect x="24" y="0" width="1" height="1" fill="#3F6021" />
<rect x="25" y="0" width="1" height="1" fill="#4B692F" />
<rect x="26" y="0" width="1" height="1" fill="#3F6021" />
<rect x="27" y="0" width="1" height="1" fill="#4B692F" />
<rect x="28" y="0" width="1" height="1" fill="#3F6021" />
<rect x="29" y="0" width="1" height="1" fill="#4B692F" />
<rect x="0" y="1" width="1" height="1" fill="#4B692F" />
<rect x="1" y="1" width="1" height="1" fill="#3F6021" />
<rect x="2" y="1" width="1" height="1" fill="#4B692F" />
<rect x="3" y="1" width="1" height="1" fill="#3F6021" />
<rect x="4" y="1" width="1" height="1" fill="#4B692F" />
<rect x="5" y="1" width="1" height="1" fill="#3F6021" />
<rect x="6" y="1" width="1" height="1" fill="#4B692F" />
<rect x="7" y="1" width="1" height="1" fill="#3F6021" />
<rect x="8" y="1" width="1" height="1" fill="#4B692F" />
<rect x="9" y="1" width="1" height="1" fill="#3F6021" />
<rect x="10" y="1" width="1" height="1" fill="#4B692F" />
<rect x="11" y="1" width="1" height="1" fill="#3F6021" />
<rect x="12" y="1" width="1" height="1" fill="#4B692F" />
<rect x="13" y="1" width="1" height="1" fill="#3F6021" />
<rect x="14" y="1" width="1" height="1" fill="#4B692F" />
<rect x="15" y="1" width="1" height="1" fill="#B5A603" />
<rect x="16" y="1" width="1" height="1" fill="#4B692F" />
<rect x="17" y="1" width="1" height="1" fill="#3F6021" />
<rect x="18" y="1" width="1" height="1" fill="#4B692F" />
<rect x="19" y="1" width="1" height="1" fill="#3F6021" />
<rect x="20" y="1" width="1" height="1" fill="#4B692F" />
<rect x="21" y="1" width="1" height="1" fill="#3F6021" />
<rect x="22" y="1" width="1" height="1" fill="#4B692F" />
<rect x="23" y="1" width="1" height="1" fill="#3F6021" />
<rect x="24" y="1" width="1" height="1" fill="#4B692F" />
<rect x="25" y="1" width="1" height="1" fill="#3F6021" />
<rect x="26" y="1" width="1" height="1" fill="#4B692F" />
<rect x="27" y="1" width="1" height="1" fill="#3F6021" />
<rect x="28" y="1" width="1" height="1" fill="#4B692F" />
<rect x="29" y="1" width="1" height="1" fill="#3F6021" />
<rect x="0" y="2" width="1" height="1" fill="#3F6021" />
<rect x="1" y="2" width="1" height="1" fill="#4B692F" />
<rect x="15" y="2" width="1" height="1" fill="#8B9DA8" />
<rect x="28" y="2" width="1" height="1" fill="#3F6021" />
<rect x="29" y="2" width="1" height="1" fill="#4B692F" />
<rect x="0" y="3" width="1" height="1" fill="#4B692F" />
<rect x="1" y="3" width="1" height="1" fill="#3F6021" />
<rect x="14" y="3" width="1" height="1" fill="#8B9DA8" />
<rect x="15" y="3" width="1" height="1" fill="#8B9DA8" />
<rect x="16" y="3" width="1" height="1" fill="#8B9DA8" />
<rect x="28" y="3" width="1" height="1" fill="#4B692F" />
<rect x="29" y="3" width="1" height="1" fill="#3F6021" />
<rect x="0" y="4" width="1" height="1" fill="#3F6021" />
<rect x="1" y="4" width="1" height="1" fill="#4B692F" />
<rect x="13" y="4" width="1" height="1" fill="#8B9DA8" />
<rect x="14" y="4" width="1" height="1" fill="#96A5AE" />
<rect x="15" y="4" width="1" height="1" fill="#8B9DA8" />
<rect x="16" y="4" width="1" height="1" fill="#96A5AE" />
<rect x="17" y="4" width="1" height="1" fill="#8B9DA8" />
<rect x="28" y="4" width="1" height="1" fill="#3F6021" />
<rect x="29" y="4" width="1" height="1" fill="#4B692F" />
<rect x="0" y="5" width="1" height="1" fill="#4B692F" />
<rect x="1" y="5" width="1" height="1" fill="#3F6021" />
<rect x="13" y="5" width="1" height="1" fill="#96A5AE" />
<rect x="14" y="5" width="1" height="1" fill="#9DA9B1" />
<rect x="15" y="5" width="1" height="1" fill="#8B9DA8" />
<rect x="16" y="5" width="1" height="1" fill="#9DA9B1" />
<rect x="17" y="5" width="1" height="1" fill="#96A5AE" />
<rect x="28" y="5" width="1" height="1" fill="#4B692F" />
<rect x="29" y="5" width="1" height="1" fill="#3F6021" />
<rect x="0" y="6" width="1" height="1" fill="#3F6021" />
<rect x="1" y="6" width="1" height="1" fill="#4B692F" />
<rect x="13" y="6" width="1" height="1" fill="#8B9DA8" />
<rect x="14" y="6" width="1" height="1" fill="#9BADB7" />
<rect x="15" y="6" width="1" height="1" fill="#8B9DA8" />
<rect x="16" y="6" width="1" height="1" fill="#9BADB7" />
<rect x="17" y="6" width="1" height="1" fill="#8B9DA8" />
<rect x="28" y="6" width="1" height="1" fill="#3F6021" />
<rect x="29" y="6" width="1" height="1" fill="#4B692F" />
<rect x="0" y="7" width="1" height="1" fill="#4B692F" />
<rect x="1" y="7" width="1" height="1" fill="#3F6021" />
<rect x="13" y="7" width="1" height="1" fill="#8B9DA8" />
<rect x="14" y="7" width="1" height="1" fill="#9BADB7" />
<rect x="15" y="7" width="1" height="1" fill="#8B9DA8" />
<rect x="16" y="7" width="1" height="1" fill="#9BADB7" />
<rect x="17" y="7" width="1" height="1" fill="#8B9DA8" />
<rect x="28" y="7" width="1" height="1" fill="#4B692F" />
<rect x="29" y="7" width="1" height="1" fill="#3F6021" />
<rect x="0" y="8" width="1" height="1" fill="#3F6021" />
<rect x="1" y="8" width="1" height="1" fill="#4B692F" />
<rect x="13" y="8" width="1" height="1" fill="#8B9DA8" />
<rect x="14" y="8" width="1" height="1" fill="#9BADB7" />
<rect x="15" y="8" width="1" height="1" fill="#8B9DA8" />
<rect x="16" y="8" width="1" height="1" fill="#9BADB7" />
<rect x="17" y="8" width="1" height="1" fill="#8B9DA8" />
<rect x="28" y="8" width="1" height="1" fill="#3F6021" />
<rect x="29" y="8" width="1" height="1" fill="#4B692F" />
<rect x="0" y="9" width="1" height="1" fill="#4B692F" />
<rect x="1" y="9" width="1" height="1" fill="#3F6021" />
<rect x="13" y="9" width="1" height="1" fill="#8B9DA8" />
<rect x="14" y="9" width="1" height="1" fill="#9BADB7" />
<rect x="15" y="9" width="1" height="1" fill="#8B9DA8" />
<rect x="16" y="9" width="1" height="1" fill="#9BADB7" />
<rect x="17" y="9" width="1" height="1" fill="#8B9DA8" />
<rect x="28" y="9" width="1" height="1" fill="#4B692F" />
<rect x="29" y="9" width="1" height="1" fill="#3F6021" />
<rect x="0" y="10" width="1" height="1" fill="#3F6021" />
<rect x="1" y="10" width="1" height="1" fill="#4B692F" />
<rect x="13" y="10" width="1" height="1" fill="#8B9DA8" />
<rect x="14" y="10" width="1" height="1" fill="#9BADB7" />
<rect x="15" y="10" width="1" height="1" fill="#8B9DA8" />
<rect x="16" y="10" width="1" height="1" fill="#9BADB7" />
<rect x="17" y="10" width="1" height="1" fill="#8B9DA8" />
<rect x="28" y="10" width="1" height="1" fill="#3F6021" />
<rect x="29" y="10" width="1" height="1" fill="#4B692F" />
<rect x="0" y="11" width="1" height="1" fill="#4B692F" />
<rect x="1" y="11" width="1" height="1" fill="#3F6021" />
<rect x="8" y="11" width="1" height="1" fill="#B5A603" />
<rect x="13" y="11" width="1" height="1" fill="#8B9DA8" />
<rect x="14" y="11" width="1" height="1" fill="#9BADB7" />
<rect x="15" y="11" width="1" height="1" fill="#8B9DA8" />
<rect x="16" y="11" width="1" height="1" fill="#9BADB7" />
<rect x="17" y="11" width="1" height="1" fill="#8B9DA8" />
<rect x="22" y="11" width="1" height="1" fill="#B5A603" />
<rect x="28" y="11" width="1" height="1" fill="#4B692F" />
<rect x="29" y="11" width="1" height="1" fill="#3F6021" />
<rect x="0" y="12" width="1" height="1" fill="#3F6021" />
<rect x="1" y="12" width="1" height="1" fill="#4B692F" />
<rect x="9" y="12" width="1" height="1" fill="#96A5AE" />
<rect x="10" y="12" width="1" height="1" fill="#96A5AE" />
<rect x="13" y="12" width="1" height="1" fill="#8B9DA8" />
<rect x="14" y="12" width="1" height="1" fill="#9BADB7" />
<rect x="15" y="12" width="1" height="1" fill="#8B9DA8" />
<rect x="16" y="12" width="1" height="1" fill="#9BADB7" />
<rect x="17" y="12" width="1" height="1" fill="#8B9DA8" />
<rect x="20" y="12" width="1" height="1" fill="#96A5AE" />
<rect x="21" y="12" width="1" height="1" fill="#96A5AE" />
<rect x="28" y="12" width="1" height="1" fill="#3F6021" />
<rect x="29" y="12" width="1" height="1" fill="#4B692F" />
<rect x="0" y="13" width="1" height="1" fill="#4B692F" />
<rect x="1" y="13" width="1" height="1" fill="#3F6021" />
<rect x="9" y="13" width="1" height="1" fill="#96A5AE" />
<rect x="10" y="13" width="1" height="1" fill="#68FF00" />
<rect x="11" y="13" width="1" height="1" fill="#96A5AE" />
<rect x="13" y="13" width="1" height="1" fill="#8B9DA8" />
<rect x="14" y="13" width="1" height="1" fill="#9BADB7" />
<rect x="15" y="13" width="1" height="1" fill="#8B9DA8" />
<rect x="16" y="13" width="1" height="1" fill="#9BADB7" />
<rect x="17" y="13" width="1" height="1" fill="#8B9DA8" />
<rect x="19" y="13" width="1" height="1" fill="#96A5AE" />
<rect x="20" y="13" width="1" height="1" fill="#F90000" />
<rect x="21" y="13" width="1" height="1" fill="#96A5AE" />
<rect x="28" y="13" width="1" height="1" fill="#4B692F" />
<rect x="29" y="13" width="1" height="1" fill="#3F6021" />
<rect x="0" y="14" width="1" height="1" fill="#3F6021" />
<rect x="1" y="14" width="1" height="1" fill="#4B692F" />
<rect x="10" y="14" width="1" height="1" fill="#96A5AE" />
<rect x="11" y="14" width="1" height="1" fill="#FBF236" />
<rect x="12" y="14" width="1" height="1" fill="#96A5AE" />
<rect x="13" y="14" width="1" height="1" fill="#8B9DA8" />
<rect x="14" y="14" width="1" height="1" fill="#8B9DA8" />
<rect x="15" y="14" width="1" height="1" fill="#8B9DA8" />
<rect x="16" y="14" width="1" height="1" fill="#8B9DA8" />
<rect x="17" y="14" width="1" height="1" fill="#8B9DA8" />
<rect x="18" y="14" width="1" height="1" fill="#96A5AE" />
<rect x="19" y="14" width="1" height="1" fill="#7900FF" />
<rect x="20" y="14" width="1" height="1" fill="#96A5AE" />
<rect x="28" y="14" width="1" height="1" fill="#3F6021" />
<rect x="29" y="14" width="1" height="1" fill="#4B692F" />
<rect x="0" y="15" width="1" height="1" fill="#4B692F" />
<rect x="1" y="15" width="1" height="1" fill="#3F6021" />
<rect x="11" y="15" width="1" height="1" fill="#96A5AE" />
<rect x="12" y="15" width="1" height="1" fill="#FF9D04" />
<rect x="13" y="15" width="1" height="1" fill="#8B9DA8" />
<rect x="14" y="15" width="1" height="1" fill="#96A5AE" />
<rect x="15" y="15" width="1" height="1" fill="#8B9DA8" />
<rect x="16" y="15" width="1" height="1" fill="#96A5AE" />
<rect x="17" y="15" width="1" height="1" fill="#8B9DA8" />
<rect x="18" y="15" width="1" height="1" fill="#1100FF" />
<rect x="19" y="15" width="1" height="1" fill="#96A5AE" />
<rect x="28" y="15" width="1" height="1" fill="#4B692F" />
<rect x="29" y="15" width="1" height="1" fill="#3F6021" />
<rect x="0" y="16" width="1" height="1" fill="#3F6021" />
<rect x="1" y="16" width="1" height="1" fill="#4B692F" />
<rect x="12" y="16" width="1" height="1" fill="#96A5AE" />
<rect x="13" y="16" width="1" height="1" fill="#96A5AE" />
<rect x="14" y="16" width="1" height="1" fill="#8B9DA8" />
<rect x="15" y="16" width="1" height="1" fill="#B5A603" />
<rect x="16" y="16" width="1" height="1" fill="#8B9DA8" />
<rect x="17" y="16" width="1" height="1" fill="#96A5AE" />
<rect x="18" y="16" width="1" height="1" fill="#96A5AE" />
<rect x="28" y="16" width="1" height="1" fill="#3F6021" />
<rect x="29" y="16" width="1" height="1" fill="#4B692F" />
<rect x="0" y="17" width="1" height="1" fill="#4B692F" />
<rect x="1" y="17" width="1" height="1" fill="#3F6021" />
<rect x="13" y="17" width="1" height="1" fill="#96A5AE" />
<rect x="14" y="17" width="1" height="1" fill="#96A5AE" />
<rect x="15" y="17" width="1" height="1" fill="#8B9DA8" />
<rect x="16" y="17" width="1" height="1" fill="#96A5AE" />
<rect x="17" y="17" width="1" height="1" fill="#96A5AE" />
<rect x="28" y="17" width="1" height="1" fill="#4B692F" />
<rect x="29" y="17" width="1" height="1" fill="#3F6021" />
<rect x="0" y="18" width="1" height="1" fill="#3F6021" />
<rect x="1" y="18" width="1" height="1" fill="#4B692F" />
<rect x="14" y="18" width="1" height="1" fill="#96A5AE" />
<rect x="15" y="18" width="1" height="1" fill="#8B9DA8" />
<rect x="16" y="18" width="1" height="1" fill="#96A5AE" />
<rect x="28" y="18" width="1" height="1" fill="#3F6021" />
<rect x="29" y="18" width="1" height="1" fill="#4B692F" />
<rect x="0" y="19" width="1" height="1" fill="#4B692F" />
<rect x="1" y="19" width="1" height="1" fill="#3F6021" />
<rect x="8" y="19" width="1" height="1" fill="#B5A603" />
<rect x="15" y="19" width="1" height="1" fill="#96A5AE" />
<rect x="22" y="19" width="1" height="1" fill="#B5A603" />
<rect x="28" y="19" width="1" height="1" fill="#4B692F" />
<rect x="29" y="19" width="1" height="1" fill="#3F6021" />
<rect x="0" y="20" width="1" height="1" fill="#3F6021" />
<rect x="1" y="20" width="1" height="1" fill="#4B692F" />
<rect x="10" y="20" width="1" height="1" fill="#B5A603" />
<rect x="15" y="20" width="1" height="1" fill="#8B9DA8" />
<rect x="20" y="20" width="1" height="1" fill="#B5A603" />
<rect x="28" y="20" width="1" height="1" fill="#3F6021" />
<rect x="29" y="20" width="1" height="1" fill="#4B692F" />
<rect x="0" y="21" width="1" height="1" fill="#4B692F" />
<rect x="1" y="21" width="1" height="1" fill="#3F6021" />
<rect x="9" y="21" width="1" height="1" fill="#B5A603" />
<rect x="10" y="21" width="1" height="1" fill="#B5A603" />
<rect x="15" y="21" width="1" height="1" fill="#9DA9B1" />
<rect x="20" y="21" width="1" height="1" fill="#B5A603" />
<rect x="21" y="21" width="1" height="1" fill="#B5A603" />
<rect x="28" y="21" width="1" height="1" fill="#4B692F" />
<rect x="29" y="21" width="1" height="1" fill="#3F6021" />
<rect x="0" y="22" width="1" height="1" fill="#3F6021" />
<rect x="1" y="22" width="1" height="1" fill="#4B692F" />
<rect x="11" y="22" width="1" height="1" fill="#467D13" />
<rect x="12" y="22" width="1" height="1" fill="#47711F" />
<rect x="15" y="22" width="1" height="1" fill="#8B9DA8" />
<rect x="18" y="22" width="1" height="1" fill="#47711F" />
<rect x="19" y="22" width="1" height="1" fill="#467D13" />
<rect x="28" y="22" width="1" height="1" fill="#3F6021" />
<rect x="29" y="22" width="1" height="1" fill="#4B692F" />
<rect x="0" y="23" width="1" height="1" fill="#4B692F" />
<rect x="1" y="23" width="1" height="1" fill="#3F6021" />
<rect x="11" y="23" width="1" height="1" fill="#47711F" />
<rect x="12" y="23" width="1" height="1" fill="#446624" />
<rect x="13" y="23" width="1" height="1" fill="#2F6002" />
<rect x="15" y="23" width="1" height="1" fill="#9DA9B1" />
<rect x="17" y="23" width="1" height="1" fill="#2F6002" />
<rect x="18" y="23" width="1" height="1" fill="#446624" />
<rect x="19" y="23" width="1" height="1" fill="#47711F" />
<rect x="28" y="23" width="1" height="1" fill="#4B692F" />
<rect x="29" y="23" width="1" height="1" fill="#3F6021" />
<rect x="0" y="24" width="1" height="1" fill="#3F6021" />
<rect x="1" y="24" width="1" height="1" fill="#4B692F" />
<rect x="12" y="24" width="1" height="1" fill="#2F6002" />
<rect x="13" y="24" width="1" height="1" fill="#446624" />
<rect x="14" y="24" width="1" height="1" fill="#4B692F" />
<rect x="15" y="24" width="1" height="1" fill="#B5A603" />
<rect x="16" y="24" width="1" height="1" fill="#4B692F" />
<rect x="17" y="24" width="1" height="1" fill="#446624" />
<rect x="18" y="24" width="1" height="1" fill="#2F6002" />
<rect x="28" y="24" width="1" height="1" fill="#3F6021" />
<rect x="29" y="24" width="1" height="1" fill="#4B692F" />
<rect x="0" y="25" width="1" height="1" fill="#4B692F" />
<rect x="1" y="25" width="1" height="1" fill="#3F6021" />
<rect x="13" y="25" width="1" height="1" fill="#2F6002" />
<rect x="14" y="25" width="1" height="1" fill="#446624" />
<rect x="15" y="25" width="1" height="1" fill="#446624" />
<rect x="16" y="25" width="1" height="1" fill="#446624" />
<rect x="17" y="25" width="1" height="1" fill="#2F6002" />
<rect x="28" y="25" width="1" height="1" fill="#4B692F" />
<rect x="29" y="25" width="1" height="1" fill="#3F6021" />
<rect x="0" y="26" width="1" height="1" fill="#3F6021" />
<rect x="1" y="26" width="1" height="1" fill="#4B692F" />
<rect x="15" y="26" width="1" height="1" fill="#B5A603" />
<rect x="28" y="26" width="1" height="1" fill="#3F6021" />
<rect x="29" y="26" width="1" height="1" fill="#4B692F" />
<rect x="0" y="27" width="1" height="1" fill="#4B692F" />
<rect x="1" y="27" width="1" height="1" fill="#3F6021" />
<rect x="14" y="27" width="1" height="1" fill="#8F563B" />
<rect x="15" y="27" width="1" height="1" fill="#663931" />
<rect x="16" y="27" width="1" height="1" fill="#8F563B" />
<rect x="28" y="27" width="1" height="1" fill="#4B692F" />
<rect x="29" y="27" width="1" height="1" fill="#3F6021" />
<rect x="0" y="28" width="1" height="1" fill="#3F6021" />
<rect x="1" y="28" width="1" height="1" fill="#4B692F" />
<rect x="2" y="28" width="1" height="1" fill="#3F6021" />
<rect x="3" y="28" width="1" height="1" fill="#4B692F" />
<rect x="4" y="28" width="1" height="1" fill="#3F6021" />
<rect x="5" y="28" width="1" height="1" fill="#4B692F" />
<rect x="6" y="28" width="1" height="1" fill="#3F6021" />
<rect x="7" y="28" width="1" height="1" fill="#4B692F" />
<rect x="8" y="28" width="1" height="1" fill="#3F6021" />
<rect x="9" y="28" width="1" height="1" fill="#4B692F" />
<rect x="10" y="28" width="1" height="1" fill="#3F6021" />
<rect x="11" y="28" width="1" height="1" fill="#4B692F" />
<rect x="12" y="28" width="1" height="1" fill="#406022" />
<rect x="13" y="28" width="1" height="1" fill="#663931" />
<rect x="14" y="28" width="1" height="1" fill="#45283C" />
<rect x="15" y="28" width="1" height="1" fill="#663931" />
<rect x="16" y="28" width="1" height="1" fill="#45283C" />
<rect x="17" y="28" width="1" height="1" fill="#663931" />
<rect x="18" y="28" width="1" height="1" fill="#406022" />
<rect x="19" y="28" width="1" height="1" fill="#4B692F" />
<rect x="20" y="28" width="1" height="1" fill="#3F6021" />
<rect x="21" y="28" width="1" height="1" fill="#4B692F" />
<rect x="22" y="28" width="1" height="1" fill="#3F6021" />
<rect x="23" y="28" width="1" height="1" fill="#4B692F" />
<rect x="24" y="28" width="1" height="1" fill="#3F6021" />
<rect x="25" y="28" width="1" height="1" fill="#4B692F" />
<rect x="26" y="28" width="1" height="1" fill="#3F6021" />
<rect x="27" y="28" width="1" height="1" fill="#4B692F" />
<rect x="28" y="28" width="1" height="1" fill="#3F6021" />
<rect x="29" y="28" width="1" height="1" fill="#4B692F" />
<rect x="0" y="29" width="1" height="1" fill="#4B692F" />
<rect x="1" y="29" width="1" height="1" fill="#3F6021" />
<rect x="2" y="29" width="1" height="1" fill="#4B692F" />
<rect x="3" y="29" width="1" height="1" fill="#3F6021" />
<rect x="4" y="29" width="1" height="1" fill="#4B692F" />
<rect x="5" y="29" width="1" height="1" fill="#3F6021" />
<rect x="6" y="29" width="1" height="1" fill="#4B692F" />
<rect x="7" y="29" width="1" height="1" fill="#3F6021" />
<rect x="8" y="29" width="1" height="1" fill="#4B692F" />
<rect x="9" y="29" width="1" height="1" fill="#3F6021" />
<rect x="10" y="29" width="1" height="1" fill="#4B692F" />
<rect x="11" y="29" width="1" height="1" fill="#3F6021" />
<rect x="12" y="29" width="1" height="1" fill="#8F563B" />
<rect x="13" y="29" width="1" height="1" fill="#45283C" />
<rect x="14" y="29" width="1" height="1" fill="#8F563B" />
<rect x="15" y="29" width="1" height="1" fill="#45283C" />
<rect x="16" y="29" width="1" height="1" fill="#8F563B" />
<rect x="17" y="29" width="1" height="1" fill="#45283C" />
<rect x="18" y="29" width="1" height="1" fill="#8F563B" />
<rect x="19" y="29" width="1" height="1" fill="#3F6021" />
<rect x="20" y="29" width="1" height="1" fill="#4B692F" />
<rect x="21" y="29" width="1" height="1" fill="#3F6021" />
<rect x="22" y="29" width="1" height="1" fill="#4B692F" />
<rect x="23" y="29" width="1" height="1" fill="#3F6021" />
<rect x="24" y="29" width="1" height="1" fill="#4B692F" />
<rect x="25" y="29" width="1" height="1" fill="#3F6021" />
<rect x="26" y="29" width="1" height="1" fill="#4B692F" />
<rect x="27" y="29" width="1" height="1" fill="#3F6021" />
<rect x="28" y="29" width="1" height="1" fill="#4B692F" />
<rect x="29" y="29" width="1" height="1" fill="#3F6021" />
</svg>