<?xml version="1.0" encoding="UTF-8" ?>
<svg version="1.1" width="100" height="50" xmlns="http://www.w3.org/2000/svg" shape-rendering="crispEdges">
<rect x="88" y="10" width="1" height="1" fill="#3F6021" />
<rect x="87" y="11" width="1" height="1" fill="#3F6021" />
<rect x="88" y="11" width="1" height="1" fill="#3F6021" />
<rect x="89" y="11" width="1" height="1" fill="#3F6021" />
<rect x="86" y="12" width="1" height="1" fill="#3F6021" />
<rect x="87" y="12" width="1" height="1" fill="#3F6021" />
<rect x="88" y="12" width="1" height="1" fill="#3F6021" />
<rect x="89" y="12" width="1" height="1" fill="#3F6021" />
<rect x="7" y="13" width="1" height="1" fill="#3F6021" />
<rect x="8" y="13" width="1" height="1" fill="#3F6021" />
<rect x="9" y="13" width="1" height="1" fill="#3F6021" />
<rect x="87" y="13" width="1" height="1" fill="#3F6021" />
<rect x="88" y="13" width="1" height="1" fill="#3F6021" />
<rect x="89" y="13" width="1" height="1" fill="#3F6021" />
<rect x="6" y="14" width="1" height="1" fill="#3F6021" />
<rect x="7" y="14" width="1" height="1" fill="#3F6021" />
<rect x="8" y="14" width="1" height="1" fill="#3F6021" />
<rect x="9" y="14" width="1" height="1" fill="#3F6021" />
<rect x="10" y="14" width="1" height="1" fill="#3F6021" />
<rect x="20" y="14" width="1" height="1" fill="#3F6021" />
<rect x="21" y="14" width="1" height="1" fill="#3F6021" />
<rect x="22" y="14" width="1" height="1" fill="#3F6021" />
<rect x="39" y="14" width="1" height="1" fill="#3F6021" />
<rect x="40" y="14" width="1" height="1" fill="#3F6021" />
<rect x="41" y="14" width="1" height="1" fill="#3F6021" />
<rect x="42" y="14" width="1" height="1" fill="#3F6021" />
<rect x="43" y="14" width="1" height="1" fill="#3F6021" />
<rect x="54" y="14" width="1" height="1" fill="#3F6021" />
<rect x="55" y="14" width="1" height="1" fill="#3F6021" />
<rect x="56" y="14" width="1" height="1" fill="#3F6021" />
<rect x="69" y="14" width="1" height="1" fill="#3F6021" />
<rect x="77" y="14" width="1" height="1" fill="#3F6021" />
<rect x="78" y="14" width="1" height="1" fill="#3F6021" />
<rect x="82" y="14" width="1" height="1" fill="#3F6021" />
<rect x="87" y="14" width="1" height="1" fill="#3F6021" />
<rect x="88" y="14" width="1" height="1" fill="#3F6021" />
<rect x="89" y="14" width="1" height="1" fill="#3F6021" />
<rect x="93" y="14" width="1" height="1" fill="#3F6021" />
<rect x="7" y="15" width="1" height="1" fill="#3F6021" />
<rect x="8" y="15" width="1" height="1" fill="#3F6021" />
<rect x="9" y="15" width="1" height="1" fill="#3F6021" />
<rect x="19" y="15" width="1" height="1" fill="#3F6021" />
<rect x="20" y="15" width="1" height="1" fill="#3F6021" />
<rect x="21" y="15" width="1" height="1" fill="#3F6021" />
<rect x="22" y="15" width="1" height="1" fill="#3F6021" />
<rect x="23" y="15" width="1" height="1" fill="#3F6021" />
<rect x="38" y="15" width="1" height="1" fill="#3F6021" />
<rect x="39" y="15" width="1" height="1" fill="#3F6021" />
<rect x="40" y="15" width="1" height="1" fill="#3F6021" />
<rect x="41" y="15" width="1" height="1" fill="#3F6021" />
<rect x="42" y="15" width="1" height="1" fill="#3F6021" />
<rect x="43" y="15" width="1" height="1" fill="#3F6021" />
<rect x="44" y="15" width="1" height="1" fill="#3F6021" />
<rect x="53" y="15" width="1" height="1" fill="#3F6021" />
<rect x="54" y="15" width="1" height="1" fill="#3F6021" />
<rect x="55" y="15" width="1" height="1" fill="#3F6021" />
<rect x="56" y="15" width="1" height="1" fill="#3F6021" />
<rect x="57" y="15" width="1" height="1" fill="#3F6021" />
<rect x="69" y="15" width="1" height="1" fill="#3F6021" />
<rect x="76" y="15" width="1" height="1" fill="#3F6021" />
<rect x="77" y="15" width="1" height="1" fill="#3F6021" />
<rect x="78" y="15" width="1" height="1" fill="#3F6021" />
<rect x="79" y="15" width="1" height="1" fill="#3F6021" />
<rect x="82" y="15" width="1" height="1" fill="#3F6021" />
<rect x="83" y="15" width="1" height="1" fill="#3F6021" />
<rect x="84" y="15" width="1" height="1" fill="#3F6021" />
<rect x="85" y="15" width="1" height="1" fill="#3F6021" />
<rect x="86" y="15" width="1" height="1" fill="#3F6021" />
<rect x="87" y="15" width="1" height="1" fill="#3F6021" />
<rect x="88" y="15" width="1" height="1" fill="#3F6021" />
<rect x="89" y="15" width="1" height="1" fill="#3F6021" />
<rect x="90" y="15" width="1" height="1" fill="#3F6021" />
<rect x="91" y="15" width="1" height="1" fill="#3F6021" />
<rect x="92" y="15" width="1" height="1" fill="#3F6021" />
<rect x="93" y="15" width="1" height="1" fill="#3F6021" />
<rect x="94" y="15" width="1" height="1" fill="#3F6021" />
<rect x="7" y="16" width="1" height="1" fill="#3F6021" />
<rect x="8" y="16" width="1" height="1" fill="#3F6021" />
<rect x="9" y="16" width="1" height="1" fill="#3F6021" />
<rect x="19" y="16" width="1" height="1" fill="#3F6021" />
<rect x="20" y="16" width="1" height="1" fill="#3F6021" />
<rect x="23" y="16" width="1" height="1" fill="#3F6021" />
<rect x="36" y="16" width="1" height="1" fill="#3F6021" />
<rect x="37" y="16" width="1" height="1" fill="#3F6021" />
<rect x="38" y="16" width="1" height="1" fill="#3F6021" />
<rect x="39" y="16" width="1" height="1" fill="#3F6021" />
<rect x="43" y="16" width="1" height="1" fill="#3F6021" />
<rect x="44" y="16" width="1" height="1" fill="#3F6021" />
<rect x="53" y="16" width="1" height="1" fill="#3F6021" />
<rect x="54" y="16" width="1" height="1" fill="#3F6021" />
<rect x="57" y="16" width="1" height="1" fill="#3F6021" />
<rect x="68" y="16" width="1" height="1" fill="#3F6021" />
<rect x="69" y="16" width="1" height="1" fill="#3F6021" />
<rect x="76" y="16" width="1" height="1" fill="#3F6021" />
<rect x="77" y="16" width="1" height="1" fill="#3F6021" />
<rect x="78" y="16" width="1" height="1" fill="#3F6021" />
<rect x="81" y="16" width="1" height="1" fill="#3F6021" />
<rect x="82" y="16" width="1" height="1" fill="#3F6021" />
<rect x="83" y="16" width="1" height="1" fill="#3F6021" />
<rect x="84" y="16" width="1" height="1" fill="#3F6021" />
<rect x="85" y="16" width="1" height="1" fill="#3F6021" />
<rect x="86" y="16" width="1" height="1" fill="#3F6021" />
<rect x="87" y="16" width="1" height="1" fill="#3F6021" />
<rect x="88" y="16" width="1" height="1" fill="#3F6021" />
<rect x="89" y="16" width="1" height="1" fill="#3F6021" />
<rect x="90" y="16" width="1" height="1" fill="#3F6021" />
<rect x="91" y="16" width="1" height="1" fill="#3F6021" />
<rect x="92" y="16" width="1" height="1" fill="#3F6021" />
<rect x="93" y="16" width="1" height="1" fill="#3F6021" />
<rect x="94" y="16" width="1" height="1" fill="#3F6021" />
<rect x="95" y="16" width="1" height="1" fill="#3F6021" />
<rect x="7" y="17" width="1" height="1" fill="#3F6021" />
<rect x="8" y="17" width="1" height="1" fill="#3F6021" />
<rect x="9" y="17" width="1" height="1" fill="#3F6021" />
<rect x="18" y="17" width="1" height="1" fill="#3F6021" />
<rect x="19" y="17" width="1" height="1" fill="#3F6021" />
<rect x="24" y="17" width="1" height="1" fill="#3F6021" />
<rect x="25" y="17" width="1" height="1" fill="#3F6021" />
<rect x="36" y="17" width="1" height="1" fill="#3F6021" />
<rect x="37" y="17" width="1" height="1" fill="#3F6021" />
<rect x="43" y="17" width="1" height="1" fill="#3F6021" />
<rect x="44" y="17" width="1" height="1" fill="#3F6021" />
<rect x="52" y="17" width="1" height="1" fill="#3F6021" />
<rect x="53" y="17" width="1" height="1" fill="#3F6021" />
<rect x="58" y="17" width="1" height="1" fill="#3F6021" />
<rect x="59" y="17" width="1" height="1" fill="#3F6021" />
<rect x="68" y="17" width="1" height="1" fill="#3F6021" />
<rect x="69" y="17" width="1" height="1" fill="#3F6021" />
<rect x="76" y="17" width="1" height="1" fill="#3F6021" />
<rect x="77" y="17" width="1" height="1" fill="#3F6021" />
<rect x="78" y="17" width="1" height="1" fill="#3F6021" />
<rect x="82" y="17" width="1" height="1" fill="#3F6021" />
<rect x="83" y="17" width="1" height="1" fill="#3F6021" />
<rect x="84" y="17" width="1" height="1" fill="#3F6021" />
<rect x="85" y="17" width="1" height="1" fill="#3F6021" />
<rect x="86" y="17" width="1" height="1" fill="#3F6021" />
<rect x="87" y="17" width="1" height="1" fill="#3F6021" />
<rect x="88" y="17" width="1" height="1" fill="#3F6021" />
<rect x="89" y="17" width="1" height="1" fill="#3F6021" />
<rect x="90" y="17" width="1" height="1" fill="#3F6021" />
<rect x="91" y="17" width="1" height="1" fill="#3F6021" />
<rect x="92" y="17" width="1" height="1" fill="#3F6021" />
<rect x="93" y="17" width="1" height="1" fill="#3F6021" />
<rect x="94" y="17" width="1" height="1" fill="#3F6021" />
<rect x="7" y="18" width="1" height="1" fill="#3F6021" />
<rect x="8" y="18" width="1" height="1" fill="#3F6021" />
<rect x="9" y="18" width="1" height="1" fill="#3F6021" />
<rect x="17" y="18" width="1" height="1" fill="#3F6021" />
<rect x="18" y="18" width="1" height="1" fill="#3F6021" />
<rect x="25" y="18" width="1" height="1" fill="#3F6021" />
<rect x="26" y="18" width="1" height="1" fill="#3F6021" />
<rect x="35" y="18" width="1" height="1" fill="#3F6021" />
<rect x="36" y="18" width="1" height="1" fill="#3F6021" />
<rect x="37" y="18" width="1" height="1" fill="#3F6021" />
<rect x="43" y="18" width="1" height="1" fill="#3F6021" />
<rect x="44" y="18" width="1" height="1" fill="#3F6021" />
<rect x="51" y="18" width="1" height="1" fill="#3F6021" />
<rect x="52" y="18" width="1" height="1" fill="#3F6021" />
<rect x="59" y="18" width="1" height="1" fill="#3F6021" />
<rect x="60" y="18" width="1" height="1" fill="#3F6021" />
<rect x="68" y="18" width="1" height="1" fill="#3F6021" />
<rect x="69" y="18" width="1" height="1" fill="#3F6021" />
<rect x="76" y="18" width="1" height="1" fill="#3F6021" />
<rect x="77" y="18" width="1" height="1" fill="#3F6021" />
<rect x="78" y="18" width="1" height="1" fill="#3F6021" />
<rect x="82" y="18" width="1" height="1" fill="#3F6021" />
<rect x="83" y="18" width="1" height="1" fill="#3F6021" />
<rect x="87" y="18" width="1" height="1" fill="#3F6021" />
<rect x="88" y="18" width="1" height="1" fill="#3F6021" />
<rect x="89" y="18" width="1" height="1" fill="#3F6021" />
<rect x="93" y="18" width="1" height="1" fill="#3F6021" />
<rect x="7" y="19" width="1" height="1" fill="#3F6021" />
<rect x="8" y="19" width="1" height="1" fill="#3F6021" />
<rect x="9" y="19" width="1" height="1" fill="#3F6021" />
<rect x="16" y="19" width="1" height="1" fill="#3F6021" />
<rect x="17" y="19" width="1" height="1" fill="#3F6021" />
<rect x="18" y="19" width="1" height="1" fill="#3F6021" />
<rect x="25" y="19" width="1" height="1" fill="#3F6021" />
<rect x="26" y="19" width="1" height="1" fill="#3F6021" />
<rect x="35" y="19" width="1" height="1" fill="#3F6021" />
<rect x="36" y="19" width="1" height="1" fill="#3F6021" />
<rect x="43" y="19" width="1" height="1" fill="#3F6021" />
<rect x="44" y="19" width="1" height="1" fill="#3F6021" />
<rect x="50" y="19" width="1" height="1" fill="#3F6021" />
<rect x="51" y="19" width="1" height="1" fill="#3F6021" />
<rect x="52" y="19" width="1" height="1" fill="#3F6021" />
<rect x="59" y="19" width="1" height="1" fill="#3F6021" />
<rect x="60" y="19" width="1" height="1" fill="#3F6021" />
<rect x="68" y="19" width="1" height="1" fill="#3F6021" />
<rect x="69" y="19" width="1" height="1" fill="#3F6021" />
<rect x="76" y="19" width="1" height="1" fill="#3F6021" />
<rect x="77" y="19" width="1" height="1" fill="#3F6021" />
<rect x="78" y="19" width="1" height="1" fill="#3F6021" />
<rect x="87" y="19" width="1" height="1" fill="#3F6021" />
<rect x="88" y="19" width="1" height="1" fill="#3F6021" />
<rect x="89" y="19" width="1" height="1" fill="#3F6021" />
<rect x="7" y="20" width="1" height="1" fill="#3F6021" />
<rect x="8" y="20" width="1" height="1" fill="#3F6021" />
<rect x="9" y="20" width="1" height="1" fill="#3F6021" />
<rect x="15" y="20" width="1" height="1" fill="#3F6021" />
<rect x="16" y="20" width="1" height="1" fill="#3F6021" />
<rect x="17" y="20" width="1" height="1" fill="#3F6021" />
<rect x="26" y="20" width="1" height="1" fill="#3F6021" />
<rect x="27" y="20" width="1" height="1" fill="#3F6021" />
<rect x="34" y="20" width="1" height="1" fill="#3F6021" />
<rect x="35" y="20" width="1" height="1" fill="#3F6021" />
<rect x="44" y="20" width="1" height="1" fill="#3F6021" />
<rect x="49" y="20" width="1" height="1" fill="#3F6021" />
<rect x="50" y="20" width="1" height="1" fill="#3F6021" />
<rect x="51" y="20" width="1" height="1" fill="#3F6021" />
<rect x="60" y="20" width="1" height="1" fill="#3F6021" />
<rect x="61" y="20" width="1" height="1" fill="#3F6021" />
<rect x="68" y="20" width="1" height="1" fill="#3F6021" />
<rect x="69" y="20" width="1" height="1" fill="#3F6021" />
<rect x="76" y="20" width="1" height="1" fill="#3F6021" />
<rect x="77" y="20" width="1" height="1" fill="#3F6021" />
<rect x="78" y="20" width="1" height="1" fill="#3F6021" />
<rect x="87" y="20" width="1" height="1" fill="#3F6021" />
<rect x="88" y="20" width="1" height="1" fill="#3F6021" />
<rect x="89" y="20" width="1" height="1" fill="#3F6021" />
<rect x="7" y="21" width="1" height="1" fill="#3F6021" />
<rect x="8" y="21" width="1" height="1" fill="#3F6021" />
<rect x="9" y="21" width="1" height="1" fill="#3F6021" />
<rect x="15" y="21" width="1" height="1" fill="#3F6021" />
<rect x="16" y="21" width="1" height="1" fill="#3F6021" />
<rect x="17" y="21" width="1" height="1" fill="#3F6021" />
<rect x="26" y="21" width="1" height="1" fill="#3F6021" />
<rect x="27" y="21" width="1" height="1" fill="#3F6021" />
<rect x="34" y="21" width="1" height="1" fill="#3F6021" />
<rect x="35" y="21" width="1" height="1" fill="#3F6021" />
<rect x="44" y="21" width="1" height="1" fill="#3F6021" />
<rect x="49" y="21" width="1" height="1" fill="#3F6021" />
<rect x="50" y="21" width="1" height="1" fill="#3F6021" />
<rect x="51" y="21" width="1" height="1" fill="#3F6021" />
<rect x="60" y="21" width="1" height="1" fill="#3F6021" />
<rect x="61" y="21" width="1" height="1" fill="#3F6021" />
<rect x="68" y="21" width="1" height="1" fill="#3F6021" />
<rect x="69" y="21" width="1" height="1" fill="#3F6021" />
<rect x="76" y="21" width="1" height="1" fill="#3F6021" />
<rect x="77" y="21" width="1" height="1" fill="#3F6021" />
<rect x="78" y="21" width="1" height="1" fill="#3F6021" />
<rect x="87" y="21" width="1" height="1" fill="#3F6021" />
<rect x="88" y="21" width="1" height="1" fill="#3F6021" />
<rect x="89" y="21" width="1" height="1" fill="#3F6021" />
<rect x="7" y="22" width="1" height="1" fill="#3F6021" />
<rect x="8" y="22" width="1" height="1" fill="#3F6021" />
<rect x="9" y="22" width="1" height="1" fill="#3F6021" />
<rect x="14" y="22" width="1" height="1" fill="#3F6021" />
<rect x="15" y="22" width="1" height="1" fill="#3F6021" />
<rect x="16" y="22" width="1" height="1" fill="#3F6021" />
<rect x="26" y="22" width="1" height="1" fill="#3F6021" />
<rect x="27" y="22" width="1" height="1" fill="#3F6021" />
<rect x="28" y="22" width="1" height="1" fill="#3F6021" />
<rect x="34" y="22" width="1" height="1" fill="#3F6021" />
<rect x="35" y="22" width="1" height="1" fill="#3F6021" />
<rect x="48" y="22" width="1" height="1" fill="#3F6021" />
<rect x="49" y="22" width="1" height="1" fill="#3F6021" />
<rect x="50" y="22" width="1" height="1" fill="#3F6021" />
<rect x="60" y="22" width="1" height="1" fill="#3F6021" />
<rect x="61" y="22" width="1" height="1" fill="#3F6021" />
<rect x="62" y="22" width="1" height="1" fill="#3F6021" />
<rect x="68" y="22" width="1" height="1" fill="#3F6021" />
<rect x="69" y="22" width="1" height="1" fill="#3F6021" />
<rect x="76" y="22" width="1" height="1" fill="#3F6021" />
<rect x="77" y="22" width="1" height="1" fill="#3F6021" />
<rect x="78" y="22" width="1" height="1" fill="#3F6021" />
<rect x="87" y="22" width="1" height="1" fill="#3F6021" />
<rect x="88" y="22" width="1" height="1" fill="#3F6021" />
<rect x="89" y="22" width="1" height="1" fill="#3F6021" />
<rect x="7" y="23" width="1" height="1" fill="#3F6021" />
<rect x="8" y="23" width="1" height="1" fill="#3F6021" />
<rect x="9" y="23" width="1" height="1" fill="#3F6021" />
<rect x="14" y="23" width="1" height="1" fill="#3F6021" />
<rect x="15" y="23" width="1" height="1" fill="#3F6021" />
<rect x="16" y="23" width="1" height="1" fill="#3F6021" />
<rect x="27" y="23" width="1" height="1" fill="#3F6021" />
<rect x="28" y="23" width="1" height="1" fill="#3F6021" />
<rect x="33" y="23" width="1" height="1" fill="#3F6021" />
<rect x="34" y="23" width="1" height="1" fill="#3F6021" />
<rect x="35" y="23" width="1" height="1" fill="#3F6021" />
<rect x="48" y="23" width="1" height="1" fill="#3F6021" />
<rect x="49" y="23" width="1" height="1" fill="#3F6021" />
<rect x="50" y="23" width="1" height="1" fill="#3F6021" />
<rect x="61" y="23" width="1" height="1" fill="#3F6021" />
<rect x="62" y="23" width="1" height="1" fill="#3F6021" />
<rect x="68" y="23" width="1" height="1" fill="#3F6021" />
<rect x="69" y="23" width="1" height="1" fill="#3F6021" />
<rect x="76" y="23" width="1" height="1" fill="#3F6021" />
<rect x="77" y="23" width="1" height="1" fill="#3F6021" />
<rect x="78" y="23" width="1" height="1" fill="#3F6021" />
<rect x="87" y="23" width="1" height="1" fill="#3F6021" />
<rect x="88" y="23" width="1" height="1" fill="#3F6021" />
<rect x="89" y="23" width="1" height="1" fill="#3F6021" />
<rect x="7" y="24" width="1" height="1" fill="#3F6021" />
<rect x="8" y="24" width="1" height="1" fill="#3F6021" />
<rect x="9" y="24" width="1" height="1" fill="#3F6021" />
<rect x="14" y="24" width="1" height="1" fill="#3F6021" />
<rect x="15" y="24" width="1" height="1" fill="#3F6021" />
<rect x="16" y="24" width="1" height="1" fill="#3F6021" />
<rect x="27" y="24" width="1" height="1" fill="#3F6021" />
<rect x="28" y="24" width="1" height="1" fill="#3F6021" />
<rect x="33" y="24" width="1" height="1" fill="#3F6021" />
<rect x="34" y="24" width="1" height="1" fill="#3F6021" />
<rect x="35" y="24" width="1" height="1" fill="#3F6021" />
<rect x="48" y="24" width="1" height="1" fill="#3F6021" />
<rect x="49" y="24" width="1" height="1" fill="#3F6021" />
<rect x="50" y="24" width="1" height="1" fill="#3F6021" />
<rect x="61" y="24" width="1" height="1" fill="#3F6021" />
<rect x="62" y="24" width="1" height="1" fill="#3F6021" />
<rect x="68" y="24" width="1" height="1" fill="#3F6021" />
<rect x="69" y="24" width="1" height="1" fill="#3F6021" />
<rect x="76" y="24" width="1" height="1" fill="#3F6021" />
<rect x="77" y="24" width="1" height="1" fill="#3F6021" />
<rect x="78" y="24" width="1" height="1" fill="#3F6021" />
<rect x="87" y="24" width="1" height="1" fill="#3F6021" />
<rect x="88" y="24" width="1" height="1" fill="#3F6021" />
<rect x="89" y="24" width="1" height="1" fill="#3F6021" />
<rect x="7" y="25" width="1" height="1" fill="#3F6021" />
<rect x="8" y="25" width="1" height="1" fill="#3F6021" />
<rect x="9" y="25" width="1" height="1" fill="#3F6021" />
<rect x="14" y="25" width="1" height="1" fill="#3F6021" />
<rect x="15" y="25" width="1" height="1" fill="#3F6021" />
<rect x="16" y="25" width="1" height="1" fill="#3F6021" />
<rect x="27" y="25" width="1" height="1" fill="#3F6021" />
<rect x="28" y="25" width="1" height="1" fill="#3F6021" />
<rect x="33" y="25" width="1" height="1" fill="#3F6021" />
<rect x="34" y="25" width="1" height="1" fill="#3F6021" />
<rect x="43" y="25" width="1" height="1" fill="#3F6021" />
<rect x="44" y="25" width="1" height="1" fill="#3F6021" />
<rect x="48" y="25" width="1" height="1" fill="#3F6021" />
<rect x="49" y="25" width="1" height="1" fill="#3F6021" />
<rect x="50" y="25" width="1" height="1" fill="#3F6021" />
<rect x="61" y="25" width="1" height="1" fill="#3F6021" />
<rect x="62" y="25" width="1" height="1" fill="#3F6021" />
<rect x="68" y="25" width="1" height="1" fill="#3F6021" />
<rect x="69" y="25" width="1" height="1" fill="#3F6021" />
<rect x="76" y="25" width="1" height="1" fill="#3F6021" />
<rect x="77" y="25" width="1" height="1" fill="#3F6021" />
<rect x="78" y="25" width="1" height="1" fill="#3F6021" />
<rect x="87" y="25" width="1" height="1" fill="#3F6021" />
<rect x="88" y="25" width="1" height="1" fill="#3F6021" />
<rect x="89" y="25" width="1" height="1" fill="#3F6021" />
<rect x="7" y="26" width="1" height="1" fill="#3F6021" />
<rect x="8" y="26" width="1" height="1" fill="#3F6021" />
<rect x="9" y="26" width="1" height="1" fill="#3F6021" />
<rect x="14" y="26" width="1" height="1" fill="#3F6021" />
<rect x="15" y="26" width="1" height="1" fill="#3F6021" />
<rect x="16" y="26" width="1" height="1" fill="#3F6021" />
<rect x="27" y="26" width="1" height="1" fill="#3F6021" />
<rect x="28" y="26" width="1" height="1" fill="#3F6021" />
<rect x="33" y="26" width="1" height="1" fill="#3F6021" />
<rect x="34" y="26" width="1" height="1" fill="#3F6021" />
<rect x="42" y="26" width="1" height="1" fill="#3F6021" />
<rect x="43" y="26" width="1" height="1" fill="#3F6021" />
<rect x="44" y="26" width="1" height="1" fill="#3F6021" />
<rect x="45" y="26" width="1" height="1" fill="#3F6021" />
<rect x="46" y="26" width="1" height="1" fill="#3F6021" />
<rect x="48" y="26" width="1" height="1" fill="#3F6021" />
<rect x="49" y="26" width="1" height="1" fill="#3F6021" />
<rect x="50" y="26" width="1" height="1" fill="#3F6021" />
<rect x="61" y="26" width="1" height="1" fill="#3F6021" />
<rect x="62" y="26" width="1" height="1" fill="#3F6021" />
<rect x="68" y="26" width="1" height="1" fill="#3F6021" />
<rect x="69" y="26" width="1" height="1" fill="#3F6021" />
<rect x="76" y="26" width="1" height="1" fill="#3F6021" />
<rect x="77" y="26" width="1" height="1" fill="#3F6021" />
<rect x="78" y="26" width="1" height="1" fill="#3F6021" />
<rect x="87" y="26" width="1" height="1" fill="#3F6021" />
<rect x="88" y="26" width="1" height="1" fill="#3F6021" />
<rect x="89" y="26" width="1" height="1" fill="#3F6021" />
<rect x="7" y="27" width="1" height="1" fill="#3F6021" />
<rect x="8" y="27" width="1" height="1" fill="#3F6021" />
<rect x="9" y="27" width="1" height="1" fill="#3F6021" />
<rect x="14" y="27" width="1" height="1" fill="#3F6021" />
<rect x="15" y="27" width="1" height="1" fill="#3F6021" />
<rect x="16" y="27" width="1" height="1" fill="#3F6021" />
<rect x="27" y="27" width="1" height="1" fill="#3F6021" />
<rect x="28" y="27" width="1" height="1" fill="#3F6021" />
<rect x="33" y="27" width="1" height="1" fill="#3F6021" />
<rect x="34" y="27" width="1" height="1" fill="#3F6021" />
<rect x="43" y="27" width="1" height="1" fill="#3F6021" />
<rect x="44" y="27" width="1" height="1" fill="#3F6021" />
<rect x="45" y="27" width="1" height="1" fill="#3F6021" />
<rect x="48" y="27" width="1" height="1" fill="#3F6021" />
<rect x="49" y="27" width="1" height="1" fill="#3F6021" />
<rect x="50" y="27" width="1" height="1" fill="#3F6021" />
<rect x="61" y="27" width="1" height="1" fill="#3F6021" />
<rect x="62" y="27" width="1" height="1" fill="#3F6021" />
<rect x="68" y="27" width="1" height="1" fill="#3F6021" />
<rect x="69" y="27" width="1" height="1" fill="#3F6021" />
<rect x="76" y="27" width="1" height="1" fill="#3F6021" />
<rect x="77" y="27" width="1" height="1" fill="#3F6021" />
<rect x="78" y="27" width="1" height="1" fill="#3F6021" />
<rect x="87" y="27" width="1" height="1" fill="#3F6021" />
<rect x="88" y="27" width="1" height="1" fill="#3F6021" />
<rect x="89" y="27" width="1" height="1" fill="#3F6021" />
<rect x="7" y="28" width="1" height="1" fill="#3F6021" />
<rect x="8" y="28" width="1" height="1" fill="#3F6021" />
<rect x="9" y="28" width="1" height="1" fill="#3F6021" />
<rect x="14" y="28" width="1" height="1" fill="#3F6021" />
<rect x="15" y="28" width="1" height="1" fill="#3F6021" />
<rect x="16" y="28" width="1" height="1" fill="#3F6021" />
<rect x="27" y="28" width="1" height="1" fill="#3F6021" />
<rect x="28" y="28" width="1" height="1" fill="#3F6021" />
<rect x="33" y="28" width="1" height="1" fill="#3F6021" />
<rect x="34" y="28" width="1" height="1" fill="#3F6021" />
<rect x="35" y="28" width="1" height="1" fill="#3F6021" />
<rect x="43" y="28" width="1" height="1" fill="#3F6021" />
<rect x="44" y="28" width="1" height="1" fill="#3F6021" />
<rect x="45" y="28" width="1" height="1" fill="#3F6021" />
<rect x="48" y="28" width="1" height="1" fill="#3F6021" />
<rect x="49" y="28" width="1" height="1" fill="#3F6021" />
<rect x="50" y="28" width="1" height="1" fill="#3F6021" />
<rect x="61" y="28" width="1" height="1" fill="#3F6021" />
<rect x="62" y="28" width="1" height="1" fill="#3F6021" />
<rect x="68" y="28" width="1" height="1" fill="#3F6021" />
<rect x="69" y="28" width="1" height="1" fill="#3F6021" />
<rect x="76" y="28" width="1" height="1" fill="#3F6021" />
<rect x="77" y="28" width="1" height="1" fill="#3F6021" />
<rect x="78" y="28" width="1" height="1" fill="#3F6021" />
<rect x="87" y="28" width="1" height="1" fill="#3F6021" />
<rect x="88" y="28" width="1" height="1" fill="#3F6021" />
<rect x="89" y="28" width="1" height="1" fill="#3F6021" />
<rect x="7" y="29" width="1" height="1" fill="#3F6021" />
<rect x="8" y="29" width="1" height="1" fill="#3F6021" />
<rect x="9" y="29" width="1" height="1" fill="#3F6021" />
<rect x="14" y="29" width="1" height="1" fill="#3F6021" />
<rect x="15" y="29" width="1" height="1" fill="#3F6021" />
<rect x="16" y="29" width="1" height="1" fill="#3F6021" />
<rect x="27" y="29" width="1" height="1" fill="#3F6021" />
<rect x="28" y="29" width="1" height="1" fill="#3F6021" />
<rect x="33" y="29" width="1" height="1" fill="#3F6021" />
<rect x="34" y="29" width="1" height="1" fill="#3F6021" />
<rect x="35" y="29" width="1" height="1" fill="#3F6021" />
<rect x="43" y="29" width="1" height="1" fill="#3F6021" />
<rect x="44" y="29" width="1" height="1" fill="#3F6021" />
<rect x="45" y="29" width="1" height="1" fill="#3F6021" />
<rect x="48" y="29" width="1" height="1" fill="#3F6021" />
<rect x="49" y="29" width="1" height="1" fill="#3F6021" />
<rect x="50" y="29" width="1" height="1" fill="#3F6021" />
<rect x="61" y="29" width="1" height="1" fill="#3F6021" />
<rect x="62" y="29" width="1" height="1" fill="#3F6021" />
<rect x="68" y="29" width="1" height="1" fill="#3F6021" />
<rect x="69" y="29" width="1" height="1" fill="#3F6021" />
<rect x="76" y="29" width="1" height="1" fill="#3F6021" />
<rect x="77" y="29" width="1" height="1" fill="#3F6021" />
<rect x="78" y="29" width="1" height="1" fill="#3F6021" />
<rect x="87" y="29" width="1" height="1" fill="#3F6021" />
<rect x="88" y="29" width="1" height="1" fill="#3F6021" />
<rect x="89" y="29" width="1" height="1" fill="#3F6021" />
<rect x="7" y="30" width="1" height="1" fill="#3F6021" />
<rect x="8" y="30" width="1" height="1" fill="#3F6021" />
<rect x="9" y="30" width="1" height="1" fill="#3F6021" />
<rect x="14" y="30" width="1" height="1" fill="#3F6021" />
<rect x="15" y="30" width="1" height="1" fill="#3F6021" />
<rect x="16" y="30" width="1" height="1" fill="#3F6021" />
<rect x="26" y="30" width="1" height="1" fill="#3F6021" />
<rect x="27" y="30" width="1" height="1" fill="#3F6021" />
<rect x="28" y="30" width="1" height="1" fill="#3F6021" />
<rect x="33" y="30" width="1" height="1" fill="#3F6021" />
<rect x="34" y="30" width="1" height="1" fill="#3F6021" />
<rect x="35" y="30" width="1" height="1" fill="#3F6021" />
<rect x="43" y="30" width="1" height="1" fill="#3F6021" />
<rect x="44" y="30" width="1" height="1" fill="#3F6021" />
<rect x="45" y="30" width="1" height="1" fill="#3F6021" />
<rect x="48" y="30" width="1" height="1" fill="#3F6021" />
<rect x="49" y="30" width="1" height="1" fill="#3F6021" />
<rect x="50" y="30" width="1" height="1" fill="#3F6021" />
<rect x="60" y="30" width="1" height="1" fill="#3F6021" />
<rect x="61" y="30" width="1" height="1" fill="#3F6021" />
<rect x="62" y="30" width="1" height="1" fill="#3F6021" />
<rect x="68" y="30" width="1" height="1" fill="#3F6021" />
<rect x="69" y="30" width="1" height="1" fill="#3F6021" />
<rect x="76" y="30" width="1" height="1" fill="#3F6021" />
<rect x="77" y="30" width="1" height="1" fill="#3F6021" />
<rect x="78" y="30" width="1" height="1" fill="#3F6021" />
<rect x="87" y="30" width="1" height="1" fill="#3F6021" />
<rect x="88" y="30" width="1" height="1" fill="#3F6021" />
<rect x="89" y="30" width="1" height="1" fill="#3F6021" />
<rect x="7" y="31" width="1" height="1" fill="#3F6021" />
<rect x="8" y="31" width="1" height="1" fill="#3F6021" />
<rect x="9" y="31" width="1" height="1" fill="#3F6021" />
<rect x="14" y="31" width="1" height="1" fill="#3F6021" />
<rect x="15" y="31" width="1" height="1" fill="#3F6021" />
<rect x="16" y="31" width="1" height="1" fill="#3F6021" />
<rect x="26" y="31" width="1" height="1" fill="#3F6021" />
<rect x="27" y="31" width="1" height="1" fill="#3F6021" />
<rect x="33" y="31" width="1" height="1" fill="#3F6021" />
<rect x="34" y="31" width="1" height="1" fill="#3F6021" />
<rect x="35" y="31" width="1" height="1" fill="#3F6021" />
<rect x="43" y="31" width="1" height="1" fill="#3F6021" />
<rect x="44" y="31" width="1" height="1" fill="#3F6021" />
<rect x="45" y="31" width="1" height="1" fill="#3F6021" />
<rect x="48" y="31" width="1" height="1" fill="#3F6021" />
<rect x="49" y="31" width="1" height="1" fill="#3F6021" />
<rect x="50" y="31" width="1" height="1" fill="#3F6021" />
<rect x="60" y="31" width="1" height="1" fill="#3F6021" />
<rect x="61" y="31" width="1" height="1" fill="#3F6021" />
<rect x="68" y="31" width="1" height="1" fill="#3F6021" />
<rect x="69" y="31" width="1" height="1" fill="#3F6021" />
<rect x="76" y="31" width="1" height="1" fill="#3F6021" />
<rect x="77" y="31" width="1" height="1" fill="#3F6021" />
<rect x="78" y="31" width="1" height="1" fill="#3F6021" />
<rect x="87" y="31" width="1" height="1" fill="#3F6021" />
<rect x="88" y="31" width="1" height="1" fill="#3F6021" />
<rect x="89" y="31" width="1" height="1" fill="#3F6021" />
<rect x="7" y="32" width="1" height="1" fill="#3F6021" />
<rect x="8" y="32" width="1" height="1" fill="#3F6021" />
<rect x="9" y="32" width="1" height="1" fill="#3F6021" />
<rect x="15" y="32" width="1" height="1" fill="#3F6021" />
<rect x="16" y="32" width="1" height="1" fill="#3F6021" />
<rect x="26" y="32" width="1" height="1" fill="#3F6021" />
<rect x="27" y="32" width="1" height="1" fill="#3F6021" />
<rect x="34" y="32" width="1" height="1" fill="#3F6021" />
<rect x="35" y="32" width="1" height="1" fill="#3F6021" />
<rect x="36" y="32" width="1" height="1" fill="#3F6021" />
<rect x="43" y="32" width="1" height="1" fill="#3F6021" />
<rect x="44" y="32" width="1" height="1" fill="#3F6021" />
<rect x="45" y="32" width="1" height="1" fill="#3F6021" />
<rect x="49" y="32" width="1" height="1" fill="#3F6021" />
<rect x="50" y="32" width="1" height="1" fill="#3F6021" />
<rect x="60" y="32" width="1" height="1" fill="#3F6021" />
<rect x="61" y="32" width="1" height="1" fill="#3F6021" />
<rect x="68" y="32" width="1" height="1" fill="#3F6021" />
<rect x="69" y="32" width="1" height="1" fill="#3F6021" />
<rect x="76" y="32" width="1" height="1" fill="#3F6021" />
<rect x="77" y="32" width="1" height="1" fill="#3F6021" />
<rect x="78" y="32" width="1" height="1" fill="#3F6021" />
<rect x="87" y="32" width="1" height="1" fill="#3F6021" />
<rect x="88" y="32" width="1" height="1" fill="#3F6021" />
<rect x="89" y="32" width="1" height="1" fill="#3F6021" />
<rect x="7" y="33" width="1" height="1" fill="#3F6021" />
<rect x="8" y="33" width="1" height="1" fill="#3F6021" />
<rect x="9" y="33" width="1" height="1" fill="#3F6021" />
<rect x="15" y="33" width="1" height="1" fill="#3F6021" />
<rect x="16" y="33" width="1" height="1" fill="#3F6021" />
<rect x="17" y="33" width="1" height="1" fill="#3F6021" />
<rect x="26" y="33" width="1" height="1" fill="#3F6021" />
<rect x="27" y="33" width="1" height="1" fill="#3F6021" />
<rect x="34" y="33" width="1" height="1" fill="#3F6021" />
<rect x="35" y="33" width="1" height="1" fill="#3F6021" />
<rect x="36" y="33" width="1" height="1" fill="#3F6021" />
<rect x="43" y="33" width="1" height="1" fill="#3F6021" />
<rect x="44" y="33" width="1" height="1" fill="#3F6021" />
<rect x="45" y="33" width="1" height="1" fill="#3F6021" />
<rect x="49" y="33" width="1" height="1" fill="#3F6021" />
<rect x="50" y="33" width="1" height="1" fill="#3F6021" />
<rect x="51" y="33" width="1" height="1" fill="#3F6021" />
<rect x="60" y="33" width="1" height="1" fill="#3F6021" />
<rect x="61" y="33" width="1" height="1" fill="#3F6021" />
<rect x="68" y="33" width="1" height="1" fill="#3F6021" />
<rect x="69" y="33" width="1" height="1" fill="#3F6021" />
<rect x="76" y="33" width="1" height="1" fill="#3F6021" />
<rect x="77" y="33" width="1" height="1" fill="#3F6021" />
<rect x="78" y="33" width="1" height="1" fill="#3F6021" />
<rect x="87" y="33" width="1" height="1" fill="#3F6021" />
<rect x="88" y="33" width="1" height="1" fill="#3F6021" />
<rect x="89" y="33" width="1" height="1" fill="#3F6021" />
<rect x="7" y="34" width="1" height="1" fill="#3F6021" />
<rect x="8" y="34" width="1" height="1" fill="#3F6021" />
<rect x="9" y="34" width="1" height="1" fill="#3F6021" />
<rect x="15" y="34" width="1" height="1" fill="#3F6021" />
<rect x="16" y="34" width="1" height="1" fill="#3F6021" />
<rect x="17" y="34" width="1" height="1" fill="#3F6021" />
<rect x="25" y="34" width="1" height="1" fill="#3F6021" />
<rect x="26" y="34" width="1" height="1" fill="#3F6021" />
<rect x="35" y="34" width="1" height="1" fill="#3F6021" />
<rect x="36" y="34" width="1" height="1" fill="#3F6021" />
<rect x="37" y="34" width="1" height="1" fill="#3F6021" />
<rect x="43" y="34" width="1" height="1" fill="#3F6021" />
<rect x="44" y="34" width="1" height="1" fill="#3F6021" />
<rect x="45" y="34" width="1" height="1" fill="#3F6021" />
<rect x="49" y="34" width="1" height="1" fill="#3F6021" />
<rect x="50" y="34" width="1" height="1" fill="#3F6021" />
<rect x="51" y="34" width="1" height="1" fill="#3F6021" />
<rect x="59" y="34" width="1" height="1" fill="#3F6021" />
<rect x="60" y="34" width="1" height="1" fill="#3F6021" />
<rect x="68" y="34" width="1" height="1" fill="#3F6021" />
<rect x="69" y="34" width="1" height="1" fill="#3F6021" />
<rect x="70" y="34" width="1" height="1" fill="#3F6021" />
<rect x="76" y="34" width="1" height="1" fill="#3F6021" />
<rect x="77" y="34" width="1" height="1" fill="#3F6021" />
<rect x="78" y="34" width="1" height="1" fill="#3F6021" />
<rect x="87" y="34" width="1" height="1" fill="#3F6021" />
<rect x="88" y="34" width="1" height="1" fill="#3F6021" />
<rect x="89" y="34" width="1" height="1" fill="#3F6021" />
<rect x="7" y="35" width="1" height="1" fill="#3F6021" />
<rect x="8" y="35" width="1" height="1" fill="#3F6021" />
<rect x="9" y="35" width="1" height="1" fill="#3F6021" />
<rect x="16" y="35" width="1" height="1" fill="#3F6021" />
<rect x="17" y="35" width="1" height="1" fill="#3F6021" />
<rect x="18" y="35" width="1" height="1" fill="#3F6021" />
<rect x="24" y="35" width="1" height="1" fill="#3F6021" />
<rect x="25" y="35" width="1" height="1" fill="#3F6021" />
<rect x="36" y="35" width="1" height="1" fill="#3F6021" />
<rect x="37" y="35" width="1" height="1" fill="#3F6021" />
<rect x="38" y="35" width="1" height="1" fill="#3F6021" />
<rect x="43" y="35" width="1" height="1" fill="#3F6021" />
<rect x="44" y="35" width="1" height="1" fill="#3F6021" />
<rect x="45" y="35" width="1" height="1" fill="#3F6021" />
<rect x="50" y="35" width="1" height="1" fill="#3F6021" />
<rect x="51" y="35" width="1" height="1" fill="#3F6021" />
<rect x="52" y="35" width="1" height="1" fill="#3F6021" />
<rect x="58" y="35" width="1" height="1" fill="#3F6021" />
<rect x="59" y="35" width="1" height="1" fill="#3F6021" />
<rect x="68" y="35" width="1" height="1" fill="#3F6021" />
<rect x="69" y="35" width="1" height="1" fill="#3F6021" />
<rect x="70" y="35" width="1" height="1" fill="#3F6021" />
<rect x="76" y="35" width="1" height="1" fill="#3F6021" />
<rect x="77" y="35" width="1" height="1" fill="#3F6021" />
<rect x="78" y="35" width="1" height="1" fill="#3F6021" />
<rect x="87" y="35" width="1" height="1" fill="#3F6021" />
<rect x="88" y="35" width="1" height="1" fill="#3F6021" />
<rect x="89" y="35" width="1" height="1" fill="#3F6021" />
<rect x="7" y="36" width="1" height="1" fill="#3F6021" />
<rect x="8" y="36" width="1" height="1" fill="#3F6021" />
<rect x="9" y="36" width="1" height="1" fill="#3F6021" />
<rect x="10" y="36" width="1" height="1" fill="#3F6021" />
<rect x="11" y="36" width="1" height="1" fill="#3F6021" />
<rect x="12" y="36" width="1" height="1" fill="#3F6021" />
<rect x="13" y="36" width="1" height="1" fill="#3F6021" />
<rect x="14" y="36" width="1" height="1" fill="#3F6021" />
<rect x="15" y="36" width="1" height="1" fill="#3F6021" />
<rect x="17" y="36" width="1" height="1" fill="#3F6021" />
<rect x="18" y="36" width="1" height="1" fill="#3F6021" />
<rect x="19" y="36" width="1" height="1" fill="#3F6021" />
<rect x="23" y="36" width="1" height="1" fill="#3F6021" />
<rect x="24" y="36" width="1" height="1" fill="#3F6021" />
<rect x="25" y="36" width="1" height="1" fill="#3F6021" />
<rect x="37" y="36" width="1" height="1" fill="#3F6021" />
<rect x="38" y="36" width="1" height="1" fill="#3F6021" />
<rect x="39" y="36" width="1" height="1" fill="#3F6021" />
<rect x="40" y="36" width="1" height="1" fill="#3F6021" />
<rect x="41" y="36" width="1" height="1" fill="#3F6021" />
<rect x="42" y="36" width="1" height="1" fill="#3F6021" />
<rect x="43" y="36" width="1" height="1" fill="#3F6021" />
<rect x="44" y="36" width="1" height="1" fill="#3F6021" />
<rect x="45" y="36" width="1" height="1" fill="#3F6021" />
<rect x="51" y="36" width="1" height="1" fill="#3F6021" />
<rect x="52" y="36" width="1" height="1" fill="#3F6021" />
<rect x="53" y="36" width="1" height="1" fill="#3F6021" />
<rect x="57" y="36" width="1" height="1" fill="#3F6021" />
<rect x="58" y="36" width="1" height="1" fill="#3F6021" />
<rect x="59" y="36" width="1" height="1" fill="#3F6021" />
<rect x="69" y="36" width="1" height="1" fill="#3F6021" />
<rect x="70" y="36" width="1" height="1" fill="#3F6021" />
<rect x="75" y="36" width="1" height="1" fill="#3F6021" />
<rect x="76" y="36" width="1" height="1" fill="#3F6021" />
<rect x="77" y="36" width="1" height="1" fill="#3F6021" />
<rect x="78" y="36" width="1" height="1" fill="#3F6021" />
<rect x="87" y="36" width="1" height="1" fill="#3F6021" />
<rect x="88" y="36" width="1" height="1" fill="#3F6021" />
<rect x="6" y="37" width="1" height="1" fill="#3F6021" />
<rect x="7" y="37" width="1" height="1" fill="#3F6021" />
<rect x="8" y="37" width="1" height="1" fill="#3F6021" />
<rect x="9" y="37" width="1" height="1" fill="#3F6021" />
<rect x="10" y="37" width="1" height="1" fill="#3F6021" />
<rect x="11" y="37" width="1" height="1" fill="#3F6021" />
<rect x="12" y="37" width="1" height="1" fill="#3F6021" />
<rect x="13" y="37" width="1" height="1" fill="#3F6021" />
<rect x="14" y="37" width="1" height="1" fill="#3F6021" />
<rect x="15" y="37" width="1" height="1" fill="#3F6021" />
<rect x="16" y="37" width="1" height="1" fill="#3F6021" />
<rect x="17" y="37" width="1" height="1" fill="#3F6021" />
<rect x="18" y="37" width="1" height="1" fill="#3F6021" />
<rect x="19" y="37" width="1" height="1" fill="#3F6021" />
<rect x="20" y="37" width="1" height="1" fill="#3F6021" />
<rect x="21" y="37" width="1" height="1" fill="#3F6021" />
<rect x="22" y="37" width="1" height="1" fill="#3F6021" />
<rect x="23" y="37" width="1" height="1" fill="#3F6021" />
<rect x="39" y="37" width="1" height="1" fill="#3F6021" />
<rect x="40" y="37" width="1" height="1" fill="#3F6021" />
<rect x="41" y="37" width="1" height="1" fill="#3F6021" />
<rect x="42" y="37" width="1" height="1" fill="#3F6021" />
<rect x="43" y="37" width="1" height="1" fill="#3F6021" />
<rect x="44" y="37" width="1" height="1" fill="#3F6021" />
<rect x="45" y="37" width="1" height="1" fill="#3F6021" />
<rect x="46" y="37" width="1" height="1" fill="#3F6021" />
<rect x="52" y="37" width="1" height="1" fill="#3F6021" />
<rect x="53" y="37" width="1" height="1" fill="#3F6021" />
<rect x="54" y="37" width="1" height="1" fill="#3F6021" />
<rect x="55" y="37" width="1" height="1" fill="#3F6021" />
<rect x="56" y="37" width="1" height="1" fill="#3F6021" />
<rect x="57" y="37" width="1" height="1" fill="#3F6021" />
<rect x="69" y="37" width="1" height="1" fill="#3F6021" />
<rect x="70" y="37" width="1" height="1" fill="#3F6021" />
<rect x="71" y="37" width="1" height="1" fill="#3F6021" />
<rect x="75" y="37" width="1" height="1" fill="#3F6021" />
<rect x="76" y="37" width="1" height="1" fill="#3F6021" />
<rect x="77" y="37" width="1" height="1" fill="#3F6021" />
<rect x="78" y="37" width="1" height="1" fill="#3F6021" />
<rect x="87" y="37" width="1" height="1" fill="#3F6021" />
<rect x="88" y="37" width="1" height="1" fill="#3F6021" />
<rect x="7" y="38" width="1" height="1" fill="#3F6021" />
<rect x="8" y="38" width="1" height="1" fill="#3F6021" />
<rect x="9" y="38" width="1" height="1" fill="#3F6021" />
<rect x="10" y="38" width="1" height="1" fill="#3F6021" />
<rect x="11" y="38" width="1" height="1" fill="#3F6021" />
<rect x="12" y="38" width="1" height="1" fill="#3F6021" />
<rect x="13" y="38" width="1" height="1" fill="#3F6021" />
<rect x="14" y="38" width="1" height="1" fill="#3F6021" />
<rect x="19" y="38" width="1" height="1" fill="#3F6021" />
<rect x="20" y="38" width="1" height="1" fill="#3F6021" />
<rect x="21" y="38" width="1" height="1" fill="#3F6021" />
<rect x="22" y="38" width="1" height="1" fill="#3F6021" />
<rect x="23" y="38" width="1" height="1" fill="#3F6021" />
<rect x="43" y="38" width="1" height="1" fill="#3F6021" />
<rect x="44" y="38" width="1" height="1" fill="#3F6021" />
<rect x="45" y="38" width="1" height="1" fill="#3F6021" />
<rect x="53" y="38" width="1" height="1" fill="#3F6021" />
<rect x="54" y="38" width="1" height="1" fill="#3F6021" />
<rect x="55" y="38" width="1" height="1" fill="#3F6021" />
<rect x="56" y="38" width="1" height="1" fill="#3F6021" />
<rect x="57" y="38" width="1" height="1" fill="#3F6021" />
<rect x="70" y="38" width="1" height="1" fill="#3F6021" />
<rect x="71" y="38" width="1" height="1" fill="#3F6021" />
<rect x="72" y="38" width="1" height="1" fill="#3F6021" />
<rect x="74" y="38" width="1" height="1" fill="#3F6021" />
<rect x="75" y="38" width="1" height="1" fill="#3F6021" />
<rect x="77" y="38" width="1" height="1" fill="#3F6021" />
<rect x="87" y="38" width="1" height="1" fill="#3F6021" />
<rect x="88" y="38" width="1" height="1" fill="#3F6021" />
<rect x="8" y="39" width="1" height="1" fill="#3F6021" />
<rect x="20" y="39" width="1" height="1" fill="#3F6021" />
<rect x="21" y="39" width="1" height="1" fill="#3F6021" />
<rect x="54" y="39" width="1" height="1" fill="#3F6021" />
<rect x="55" y="39" width="1" height="1" fill="#3F6021" />
<rect x="71" y="39" width="1" height="1" fill="#3F6021" />
<rect x="72" y="39" width="1" height="1" fill="#3F6021" />
<rect x="73" y="39" width="1" height="1" fill="#3F6021" />
<rect x="74" y="39" width="1" height="1" fill="#3F6021" />
<rect x="77" y="39" width="1" height="1" fill="#3F6021" />
<rect x="88" y="39" width="1" height="1" fill="#3F6021" />
<rect x="88" y="40" width="1" height="1" fill="#3F6021" />
</svg>