<?xml version="1.0" encoding="UTF-8" ?>
<svg version="1.1" width="100" height="30" xmlns="http://www.w3.org/2000/svg" shape-rendering="crispEdges">
<rect x="6" y="6" width="1" height="1" fill="#3F6021" />
<rect x="7" y="6" width="1" height="1" fill="#3F6021" />
<rect x="9" y="6" width="1" height="1" fill="#3F6021" />
<rect x="53" y="6" width="1" height="1" fill="#446624" />
<rect x="54" y="6" width="1" height="1" fill="#446624" />
<rect x="60" y="6" width="1" height="1" fill="#446624" />
<rect x="61" y="6" width="1" height="1" fill="#446624" />
<rect x="62" y="6" width="1" height="1" fill="#446624" />
<rect x="63" y="6" width="1" height="1" fill="#446624" />
<rect x="6" y="7" width="1" height="1" fill="#3F6021" />
<rect x="7" y="7" width="1" height="1" fill="#3F6021" />
<rect x="9" y="7" width="1" height="1" fill="#3F6021" />
<rect x="53" y="7" width="1" height="1" fill="#446624" />
<rect x="54" y="7" width="1" height="1" fill="#446624" />
<rect x="60" y="7" width="1" height="1" fill="#446624" />
<rect x="61" y="7" width="1" height="1" fill="#446624" />
<rect x="62" y="7" width="1" height="1" fill="#446624" />
<rect x="63" y="7" width="1" height="1" fill="#446624" />
<rect x="4" y="8" width="1" height="1" fill="#3F6021" />
<rect x="5" y="8" width="1" height="1" fill="#3F6021" />
<rect x="6" y="8" width="1" height="1" fill="#3F6021" />
<rect x="7" y="8" width="1" height="1" fill="#3F6021" />
<rect x="8" y="8" width="1" height="1" fill="#3F6021" />
<rect x="51" y="8" width="1" height="1" fill="#446624" />
<rect x="52" y="8" width="1" height="1" fill="#446624" />
<rect x="53" y="8" width="1" height="1" fill="#446624" />
<rect x="54" y="8" width="1" height="1" fill="#446624" />
<rect x="56" y="8" width="1" height="1" fill="#446624" />
<rect x="59" y="8" width="1" height="1" fill="#446624" />
<rect x="60" y="8" width="1" height="1" fill="#446624" />
<rect x="3" y="9" width="1" height="1" fill="#3F6021" />
<rect x="4" y="9" width="1" height="1" fill="#3F6021" />
<rect x="5" y="9" width="1" height="1" fill="#3F6021" />
<rect x="39" y="9" width="1" height="1" fill="#446624" />
<rect x="50" y="9" width="1" height="1" fill="#446624" />
<rect x="51" y="9" width="1" height="1" fill="#446624" />
<rect x="52" y="9" width="1" height="1" fill="#446624" />
<rect x="53" y="9" width="1" height="1" fill="#446624" />
<rect x="54" y="9" width="1" height="1" fill="#446624" />
<rect x="55" y="9" width="1" height="1" fill="#446624" />
<rect x="56" y="9" width="1" height="1" fill="#446624" />
<rect x="58" y="9" width="1" height="1" fill="#446624" />
<rect x="59" y="9" width="1" height="1" fill="#446624" />
<rect x="60" y="9" width="1" height="1" fill="#446624" />
<rect x="2" y="10" width="1" height="1" fill="#3F6021" />
<rect x="3" y="10" width="1" height="1" fill="#3F6021" />
<rect x="4" y="10" width="1" height="1" fill="#3F6021" />
<rect x="5" y="10" width="1" height="1" fill="#3F6021" />
<rect x="32" y="10" width="1" height="1" fill="#446624" />
<rect x="34" y="10" width="1" height="1" fill="#446624" />
<rect x="35" y="10" width="1" height="1" fill="#446624" />
<rect x="36" y="10" width="1" height="1" fill="#446624" />
<rect x="38" y="10" width="1" height="1" fill="#446624" />
<rect x="39" y="10" width="1" height="1" fill="#446624" />
<rect x="48" y="10" width="1" height="1" fill="#446624" />
<rect x="50" y="10" width="1" height="1" fill="#446624" />
<rect x="51" y="10" width="1" height="1" fill="#446624" />
<rect x="54" y="10" width="1" height="1" fill="#446624" />
<rect x="55" y="10" width="1" height="1" fill="#446624" />
<rect x="57" y="10" width="1" height="1" fill="#446624" />
<rect x="59" y="10" width="1" height="1" fill="#446624" />
<rect x="60" y="10" width="1" height="1" fill="#446624" />
<rect x="94" y="10" width="1" height="1" fill="#446624" />
<rect x="96" y="10" width="1" height="1" fill="#446624" />
<rect x="97" y="10" width="1" height="1" fill="#446624" />
<rect x="98" y="10" width="1" height="1" fill="#446624" />
<rect x="3" y="11" width="1" height="1" fill="#3F6021" />
<rect x="4" y="11" width="1" height="1" fill="#3F6021" />
<rect x="5" y="11" width="1" height="1" fill="#3F6021" />
<rect x="6" y="11" width="1" height="1" fill="#3F6021" />
<rect x="10" y="11" width="1" height="1" fill="#446624" />
<rect x="25" y="11" width="1" height="1" fill="#446624" />
<rect x="26" y="11" width="1" height="1" fill="#446624" />
<rect x="31" y="11" width="1" height="1" fill="#446624" />
<rect x="32" y="11" width="1" height="1" fill="#446624" />
<rect x="33" y="11" width="1" height="1" fill="#446624" />
<rect x="34" y="11" width="1" height="1" fill="#446624" />
<rect x="35" y="11" width="1" height="1" fill="#446624" />
<rect x="36" y="11" width="1" height="1" fill="#446624" />
<rect x="40" y="11" width="1" height="1" fill="#446624" />
<rect x="47" y="11" width="1" height="1" fill="#446624" />
<rect x="48" y="11" width="1" height="1" fill="#446624" />
<rect x="49" y="11" width="1" height="1" fill="#446624" />
<rect x="50" y="11" width="1" height="1" fill="#446624" />
<rect x="51" y="11" width="1" height="1" fill="#446624" />
<rect x="59" y="11" width="1" height="1" fill="#446624" />
<rect x="60" y="11" width="1" height="1" fill="#446624" />
<rect x="68" y="11" width="1" height="1" fill="#446624" />
<rect x="69" y="11" width="1" height="1" fill="#446624" />
<rect x="70" y="11" width="1" height="1" fill="#446624" />
<rect x="73" y="11" width="1" height="1" fill="#446624" />
<rect x="87" y="11" width="1" height="1" fill="#446624" />
<rect x="88" y="11" width="1" height="1" fill="#446624" />
<rect x="89" y="11" width="1" height="1" fill="#446624" />
<rect x="93" y="11" width="1" height="1" fill="#446624" />
<rect x="94" y="11" width="1" height="1" fill="#446624" />
<rect x="95" y="11" width="1" height="1" fill="#446624" />
<rect x="96" y="11" width="1" height="1" fill="#446624" />
<rect x="97" y="11" width="1" height="1" fill="#446624" />
<rect x="98" y="11" width="1" height="1" fill="#446624" />
<rect x="2" y="12" width="1" height="1" fill="#3F6021" />
<rect x="4" y="12" width="1" height="1" fill="#3F6021" />
<rect x="5" y="12" width="1" height="1" fill="#3F6021" />
<rect x="6" y="12" width="1" height="1" fill="#3F6021" />
<rect x="7" y="12" width="1" height="1" fill="#3F6021" />
<rect x="10" y="12" width="1" height="1" fill="#446624" />
<rect x="11" y="12" width="1" height="1" fill="#446624" />
<rect x="13" y="12" width="1" height="1" fill="#446624" />
<rect x="16" y="12" width="1" height="1" fill="#446624" />
<rect x="17" y="12" width="1" height="1" fill="#446624" />
<rect x="20" y="12" width="1" height="1" fill="#446624" />
<rect x="24" y="12" width="1" height="1" fill="#446624" />
<rect x="25" y="12" width="1" height="1" fill="#446624" />
<rect x="26" y="12" width="1" height="1" fill="#446624" />
<rect x="27" y="12" width="1" height="1" fill="#446624" />
<rect x="30" y="12" width="1" height="1" fill="#446624" />
<rect x="31" y="12" width="1" height="1" fill="#446624" />
<rect x="32" y="12" width="1" height="1" fill="#446624" />
<rect x="36" y="12" width="1" height="1" fill="#446624" />
<rect x="40" y="12" width="1" height="1" fill="#446624" />
<rect x="41" y="12" width="1" height="1" fill="#446624" />
<rect x="42" y="12" width="1" height="1" fill="#446624" />
<rect x="48" y="12" width="1" height="1" fill="#446624" />
<rect x="50" y="12" width="1" height="1" fill="#446624" />
<rect x="51" y="12" width="1" height="1" fill="#446624" />
<rect x="59" y="12" width="1" height="1" fill="#446624" />
<rect x="60" y="12" width="1" height="1" fill="#446624" />
<rect x="67" y="12" width="1" height="1" fill="#446624" />
<rect x="68" y="12" width="1" height="1" fill="#446624" />
<rect x="69" y="12" width="1" height="1" fill="#446624" />
<rect x="70" y="12" width="1" height="1" fill="#446624" />
<rect x="73" y="12" width="1" height="1" fill="#446624" />
<rect x="74" y="12" width="1" height="1" fill="#446624" />
<rect x="76" y="12" width="1" height="1" fill="#446624" />
<rect x="79" y="12" width="1" height="1" fill="#446624" />
<rect x="80" y="12" width="1" height="1" fill="#446624" />
<rect x="83" y="12" width="1" height="1" fill="#446624" />
<rect x="87" y="12" width="1" height="1" fill="#446624" />
<rect x="88" y="12" width="1" height="1" fill="#446624" />
<rect x="89" y="12" width="1" height="1" fill="#446624" />
<rect x="90" y="12" width="1" height="1" fill="#446624" />
<rect x="92" y="12" width="1" height="1" fill="#446624" />
<rect x="93" y="12" width="1" height="1" fill="#446624" />
<rect x="94" y="12" width="1" height="1" fill="#446624" />
<rect x="98" y="12" width="1" height="1" fill="#446624" />
<rect x="3" y="13" width="1" height="1" fill="#3F6021" />
<rect x="4" y="13" width="1" height="1" fill="#3F6021" />
<rect x="6" y="13" width="1" height="1" fill="#3F6021" />
<rect x="7" y="13" width="1" height="1" fill="#3F6021" />
<rect x="8" y="13" width="1" height="1" fill="#3F6021" />
<rect x="11" y="13" width="1" height="1" fill="#446624" />
<rect x="12" y="13" width="1" height="1" fill="#446624" />
<rect x="13" y="13" width="1" height="1" fill="#446624" />
<rect x="15" y="13" width="1" height="1" fill="#446624" />
<rect x="16" y="13" width="1" height="1" fill="#446624" />
<rect x="17" y="13" width="1" height="1" fill="#446624" />
<rect x="19" y="13" width="1" height="1" fill="#446624" />
<rect x="20" y="13" width="1" height="1" fill="#446624" />
<rect x="21" y="13" width="1" height="1" fill="#446624" />
<rect x="23" y="13" width="1" height="1" fill="#446624" />
<rect x="24" y="13" width="1" height="1" fill="#446624" />
<rect x="26" y="13" width="1" height="1" fill="#446624" />
<rect x="27" y="13" width="1" height="1" fill="#446624" />
<rect x="28" y="13" width="1" height="1" fill="#446624" />
<rect x="31" y="13" width="1" height="1" fill="#446624" />
<rect x="32" y="13" width="1" height="1" fill="#446624" />
<rect x="41" y="13" width="1" height="1" fill="#446624" />
<rect x="42" y="13" width="1" height="1" fill="#446624" />
<rect x="43" y="13" width="1" height="1" fill="#446624" />
<rect x="50" y="13" width="1" height="1" fill="#446624" />
<rect x="51" y="13" width="1" height="1" fill="#446624" />
<rect x="52" y="13" width="1" height="1" fill="#446624" />
<rect x="53" y="13" width="1" height="1" fill="#446624" />
<rect x="54" y="13" width="1" height="1" fill="#446624" />
<rect x="59" y="13" width="1" height="1" fill="#446624" />
<rect x="60" y="13" width="1" height="1" fill="#446624" />
<rect x="66" y="13" width="1" height="1" fill="#446624" />
<rect x="67" y="13" width="1" height="1" fill="#446624" />
<rect x="70" y="13" width="1" height="1" fill="#446624" />
<rect x="71" y="13" width="1" height="1" fill="#446624" />
<rect x="74" y="13" width="1" height="1" fill="#446624" />
<rect x="75" y="13" width="1" height="1" fill="#446624" />
<rect x="76" y="13" width="1" height="1" fill="#446624" />
<rect x="78" y="13" width="1" height="1" fill="#446624" />
<rect x="79" y="13" width="1" height="1" fill="#446624" />
<rect x="80" y="13" width="1" height="1" fill="#446624" />
<rect x="82" y="13" width="1" height="1" fill="#446624" />
<rect x="83" y="13" width="1" height="1" fill="#446624" />
<rect x="84" y="13" width="1" height="1" fill="#446624" />
<rect x="86" y="13" width="1" height="1" fill="#446624" />
<rect x="88" y="13" width="1" height="1" fill="#446624" />
<rect x="89" y="13" width="1" height="1" fill="#446624" />
<rect x="90" y="13" width="1" height="1" fill="#446624" />
<rect x="93" y="13" width="1" height="1" fill="#446624" />
<rect x="94" y="13" width="1" height="1" fill="#446624" />
<rect x="4" y="14" width="1" height="1" fill="#3F6021" />
<rect x="5" y="14" width="1" height="1" fill="#3F6021" />
<rect x="7" y="14" width="1" height="1" fill="#3F6021" />
<rect x="8" y="14" width="1" height="1" fill="#3F6021" />
<rect x="12" y="14" width="1" height="1" fill="#446624" />
<rect x="13" y="14" width="1" height="1" fill="#446624" />
<rect x="15" y="14" width="1" height="1" fill="#446624" />
<rect x="16" y="14" width="1" height="1" fill="#446624" />
<rect x="17" y="14" width="1" height="1" fill="#446624" />
<rect x="19" y="14" width="1" height="1" fill="#446624" />
<rect x="20" y="14" width="1" height="1" fill="#446624" />
<rect x="23" y="14" width="1" height="1" fill="#446624" />
<rect x="24" y="14" width="1" height="1" fill="#446624" />
<rect x="26" y="14" width="1" height="1" fill="#446624" />
<rect x="27" y="14" width="1" height="1" fill="#446624" />
<rect x="28" y="14" width="1" height="1" fill="#446624" />
<rect x="31" y="14" width="1" height="1" fill="#446624" />
<rect x="32" y="14" width="1" height="1" fill="#446624" />
<rect x="40" y="14" width="1" height="1" fill="#446624" />
<rect x="42" y="14" width="1" height="1" fill="#446624" />
<rect x="43" y="14" width="1" height="1" fill="#446624" />
<rect x="44" y="14" width="1" height="1" fill="#446624" />
<rect x="48" y="14" width="1" height="1" fill="#446624" />
<rect x="50" y="14" width="1" height="1" fill="#446624" />
<rect x="51" y="14" width="1" height="1" fill="#446624" />
<rect x="59" y="14" width="1" height="1" fill="#446624" />
<rect x="60" y="14" width="1" height="1" fill="#446624" />
<rect x="66" y="14" width="1" height="1" fill="#446624" />
<rect x="67" y="14" width="1" height="1" fill="#446624" />
<rect x="70" y="14" width="1" height="1" fill="#446624" />
<rect x="71" y="14" width="1" height="1" fill="#446624" />
<rect x="75" y="14" width="1" height="1" fill="#446624" />
<rect x="76" y="14" width="1" height="1" fill="#446624" />
<rect x="78" y="14" width="1" height="1" fill="#446624" />
<rect x="79" y="14" width="1" height="1" fill="#446624" />
<rect x="80" y="14" width="1" height="1" fill="#446624" />
<rect x="82" y="14" width="1" height="1" fill="#446624" />
<rect x="83" y="14" width="1" height="1" fill="#446624" />
<rect x="86" y="14" width="1" height="1" fill="#446624" />
<rect x="88" y="14" width="1" height="1" fill="#446624" />
<rect x="89" y="14" width="1" height="1" fill="#446624" />
<rect x="90" y="14" width="1" height="1" fill="#446624" />
<rect x="93" y="14" width="1" height="1" fill="#446624" />
<rect x="94" y="14" width="1" height="1" fill="#446624" />
<rect x="4" y="15" width="1" height="1" fill="#3F6021" />
<rect x="5" y="15" width="1" height="1" fill="#3F6021" />
<rect x="6" y="15" width="1" height="1" fill="#3F6021" />
<rect x="7" y="15" width="1" height="1" fill="#3F6021" />
<rect x="8" y="15" width="1" height="1" fill="#3F6021" />
<rect x="9" y="15" width="1" height="1" fill="#3F6021" />
<rect x="12" y="15" width="1" height="1" fill="#446624" />
<rect x="13" y="15" width="1" height="1" fill="#446624" />
<rect x="15" y="15" width="1" height="1" fill="#446624" />
<rect x="16" y="15" width="1" height="1" fill="#446624" />
<rect x="17" y="15" width="1" height="1" fill="#446624" />
<rect x="19" y="15" width="1" height="1" fill="#446624" />
<rect x="20" y="15" width="1" height="1" fill="#446624" />
<rect x="23" y="15" width="1" height="1" fill="#446624" />
<rect x="24" y="15" width="1" height="1" fill="#446624" />
<rect x="26" y="15" width="1" height="1" fill="#446624" />
<rect x="27" y="15" width="1" height="1" fill="#446624" />
<rect x="28" y="15" width="1" height="1" fill="#446624" />
<rect x="31" y="15" width="1" height="1" fill="#446624" />
<rect x="32" y="15" width="1" height="1" fill="#446624" />
<rect x="40" y="15" width="1" height="1" fill="#446624" />
<rect x="42" y="15" width="1" height="1" fill="#446624" />
<rect x="43" y="15" width="1" height="1" fill="#446624" />
<rect x="44" y="15" width="1" height="1" fill="#446624" />
<rect x="47" y="15" width="1" height="1" fill="#446624" />
<rect x="48" y="15" width="1" height="1" fill="#446624" />
<rect x="49" y="15" width="1" height="1" fill="#446624" />
<rect x="50" y="15" width="1" height="1" fill="#446624" />
<rect x="51" y="15" width="1" height="1" fill="#446624" />
<rect x="59" y="15" width="1" height="1" fill="#446624" />
<rect x="60" y="15" width="1" height="1" fill="#446624" />
<rect x="66" y="15" width="1" height="1" fill="#446624" />
<rect x="67" y="15" width="1" height="1" fill="#446624" />
<rect x="70" y="15" width="1" height="1" fill="#446624" />
<rect x="71" y="15" width="1" height="1" fill="#446624" />
<rect x="75" y="15" width="1" height="1" fill="#446624" />
<rect x="76" y="15" width="1" height="1" fill="#446624" />
<rect x="78" y="15" width="1" height="1" fill="#446624" />
<rect x="79" y="15" width="1" height="1" fill="#446624" />
<rect x="80" y="15" width="1" height="1" fill="#446624" />
<rect x="82" y="15" width="1" height="1" fill="#446624" />
<rect x="83" y="15" width="1" height="1" fill="#446624" />
<rect x="86" y="15" width="1" height="1" fill="#446624" />
<rect x="87" y="15" width="1" height="1" fill="#446624" />
<rect x="93" y="15" width="1" height="1" fill="#446624" />
<rect x="94" y="15" width="1" height="1" fill="#446624" />
<rect x="6" y="16" width="1" height="1" fill="#3F6021" />
<rect x="8" y="16" width="1" height="1" fill="#3F6021" />
<rect x="9" y="16" width="1" height="1" fill="#3F6021" />
<rect x="12" y="16" width="1" height="1" fill="#446624" />
<rect x="13" y="16" width="1" height="1" fill="#446624" />
<rect x="15" y="16" width="1" height="1" fill="#446624" />
<rect x="16" y="16" width="1" height="1" fill="#446624" />
<rect x="17" y="16" width="1" height="1" fill="#446624" />
<rect x="19" y="16" width="1" height="1" fill="#446624" />
<rect x="20" y="16" width="1" height="1" fill="#446624" />
<rect x="23" y="16" width="1" height="1" fill="#446624" />
<rect x="24" y="16" width="1" height="1" fill="#446624" />
<rect x="26" y="16" width="1" height="1" fill="#446624" />
<rect x="27" y="16" width="1" height="1" fill="#446624" />
<rect x="28" y="16" width="1" height="1" fill="#446624" />
<rect x="31" y="16" width="1" height="1" fill="#446624" />
<rect x="32" y="16" width="1" height="1" fill="#446624" />
<rect x="40" y="16" width="1" height="1" fill="#446624" />
<rect x="42" y="16" width="1" height="1" fill="#446624" />
<rect x="43" y="16" width="1" height="1" fill="#446624" />
<rect x="44" y="16" width="1" height="1" fill="#446624" />
<rect x="47" y="16" width="1" height="1" fill="#446624" />
<rect x="48" y="16" width="1" height="1" fill="#446624" />
<rect x="49" y="16" width="1" height="1" fill="#446624" />
<rect x="50" y="16" width="1" height="1" fill="#446624" />
<rect x="51" y="16" width="1" height="1" fill="#446624" />
<rect x="59" y="16" width="1" height="1" fill="#446624" />
<rect x="60" y="16" width="1" height="1" fill="#446624" />
<rect x="66" y="16" width="1" height="1" fill="#446624" />
<rect x="67" y="16" width="1" height="1" fill="#446624" />
<rect x="70" y="16" width="1" height="1" fill="#446624" />
<rect x="71" y="16" width="1" height="1" fill="#446624" />
<rect x="75" y="16" width="1" height="1" fill="#446624" />
<rect x="76" y="16" width="1" height="1" fill="#446624" />
<rect x="78" y="16" width="1" height="1" fill="#446624" />
<rect x="79" y="16" width="1" height="1" fill="#446624" />
<rect x="80" y="16" width="1" height="1" fill="#446624" />
<rect x="82" y="16" width="1" height="1" fill="#446624" />
<rect x="83" y="16" width="1" height="1" fill="#446624" />
<rect x="86" y="16" width="1" height="1" fill="#446624" />
<rect x="87" y="16" width="1" height="1" fill="#446624" />
<rect x="93" y="16" width="1" height="1" fill="#446624" />
<rect x="94" y="16" width="1" height="1" fill="#446624" />
<rect x="7" y="17" width="1" height="1" fill="#3F6021" />
<rect x="9" y="17" width="1" height="1" fill="#3F6021" />
<rect x="12" y="17" width="1" height="1" fill="#446624" />
<rect x="13" y="17" width="1" height="1" fill="#446624" />
<rect x="15" y="17" width="1" height="1" fill="#446624" />
<rect x="16" y="17" width="1" height="1" fill="#446624" />
<rect x="17" y="17" width="1" height="1" fill="#446624" />
<rect x="19" y="17" width="1" height="1" fill="#446624" />
<rect x="20" y="17" width="1" height="1" fill="#446624" />
<rect x="23" y="17" width="1" height="1" fill="#446624" />
<rect x="24" y="17" width="1" height="1" fill="#446624" />
<rect x="26" y="17" width="1" height="1" fill="#446624" />
<rect x="27" y="17" width="1" height="1" fill="#446624" />
<rect x="28" y="17" width="1" height="1" fill="#446624" />
<rect x="31" y="17" width="1" height="1" fill="#446624" />
<rect x="32" y="17" width="1" height="1" fill="#446624" />
<rect x="40" y="17" width="1" height="1" fill="#446624" />
<rect x="42" y="17" width="1" height="1" fill="#446624" />
<rect x="43" y="17" width="1" height="1" fill="#446624" />
<rect x="44" y="17" width="1" height="1" fill="#446624" />
<rect x="48" y="17" width="1" height="1" fill="#446624" />
<rect x="50" y="17" width="1" height="1" fill="#446624" />
<rect x="51" y="17" width="1" height="1" fill="#446624" />
<rect x="59" y="17" width="1" height="1" fill="#446624" />
<rect x="60" y="17" width="1" height="1" fill="#446624" />
<rect x="66" y="17" width="1" height="1" fill="#446624" />
<rect x="67" y="17" width="1" height="1" fill="#446624" />
<rect x="70" y="17" width="1" height="1" fill="#446624" />
<rect x="71" y="17" width="1" height="1" fill="#446624" />
<rect x="75" y="17" width="1" height="1" fill="#446624" />
<rect x="76" y="17" width="1" height="1" fill="#446624" />
<rect x="78" y="17" width="1" height="1" fill="#446624" />
<rect x="79" y="17" width="1" height="1" fill="#446624" />
<rect x="80" y="17" width="1" height="1" fill="#446624" />
<rect x="82" y="17" width="1" height="1" fill="#446624" />
<rect x="83" y="17" width="1" height="1" fill="#446624" />
<rect x="86" y="17" width="1" height="1" fill="#446624" />
<rect x="93" y="17" width="1" height="1" fill="#446624" />
<rect x="94" y="17" width="1" height="1" fill="#446624" />
<rect x="8" y="18" width="1" height="1" fill="#3F6021" />
<rect x="9" y="18" width="1" height="1" fill="#3F6021" />
<rect x="12" y="18" width="1" height="1" fill="#446624" />
<rect x="13" y="18" width="1" height="1" fill="#446624" />
<rect x="15" y="18" width="1" height="1" fill="#446624" />
<rect x="16" y="18" width="1" height="1" fill="#446624" />
<rect x="17" y="18" width="1" height="1" fill="#446624" />
<rect x="19" y="18" width="1" height="1" fill="#446624" />
<rect x="20" y="18" width="1" height="1" fill="#446624" />
<rect x="23" y="18" width="1" height="1" fill="#446624" />
<rect x="24" y="18" width="1" height="1" fill="#446624" />
<rect x="26" y="18" width="1" height="1" fill="#446624" />
<rect x="27" y="18" width="1" height="1" fill="#446624" />
<rect x="28" y="18" width="1" height="1" fill="#446624" />
<rect x="31" y="18" width="1" height="1" fill="#446624" />
<rect x="32" y="18" width="1" height="1" fill="#446624" />
<rect x="40" y="18" width="1" height="1" fill="#446624" />
<rect x="42" y="18" width="1" height="1" fill="#446624" />
<rect x="43" y="18" width="1" height="1" fill="#446624" />
<rect x="44" y="18" width="1" height="1" fill="#446624" />
<rect x="50" y="18" width="1" height="1" fill="#446624" />
<rect x="51" y="18" width="1" height="1" fill="#446624" />
<rect x="59" y="18" width="1" height="1" fill="#446624" />
<rect x="60" y="18" width="1" height="1" fill="#446624" />
<rect x="66" y="18" width="1" height="1" fill="#446624" />
<rect x="67" y="18" width="1" height="1" fill="#446624" />
<rect x="70" y="18" width="1" height="1" fill="#446624" />
<rect x="71" y="18" width="1" height="1" fill="#446624" />
<rect x="75" y="18" width="1" height="1" fill="#446624" />
<rect x="76" y="18" width="1" height="1" fill="#446624" />
<rect x="78" y="18" width="1" height="1" fill="#446624" />
<rect x="79" y="18" width="1" height="1" fill="#446624" />
<rect x="80" y="18" width="1" height="1" fill="#446624" />
<rect x="82" y="18" width="1" height="1" fill="#446624" />
<rect x="83" y="18" width="1" height="1" fill="#446624" />
<rect x="86" y="18" width="1" height="1" fill="#446624" />
<rect x="93" y="18" width="1" height="1" fill="#446624" />
<rect x="94" y="18" width="1" height="1" fill="#446624" />
<rect x="2" y="19" width="1" height="1" fill="#3F6021" />
<rect x="3" y="19" width="1" height="1" fill="#3F6021" />
<rect x="4" y="19" width="1" height="1" fill="#3F6021" />
<rect x="5" y="19" width="1" height="1" fill="#3F6021" />
<rect x="8" y="19" width="1" height="1" fill="#3F6021" />
<rect x="13" y="19" width="1" height="1" fill="#446624" />
<rect x="15" y="19" width="1" height="1" fill="#446624" />
<rect x="16" y="19" width="1" height="1" fill="#446624" />
<rect x="17" y="19" width="1" height="1" fill="#446624" />
<rect x="19" y="19" width="1" height="1" fill="#446624" />
<rect x="20" y="19" width="1" height="1" fill="#446624" />
<rect x="21" y="19" width="1" height="1" fill="#446624" />
<rect x="24" y="19" width="1" height="1" fill="#446624" />
<rect x="25" y="19" width="1" height="1" fill="#446624" />
<rect x="26" y="19" width="1" height="1" fill="#446624" />
<rect x="27" y="19" width="1" height="1" fill="#446624" />
<rect x="31" y="19" width="1" height="1" fill="#446624" />
<rect x="32" y="19" width="1" height="1" fill="#446624" />
<rect x="33" y="19" width="1" height="1" fill="#446624" />
<rect x="34" y="19" width="1" height="1" fill="#446624" />
<rect x="40" y="19" width="1" height="1" fill="#446624" />
<rect x="42" y="19" width="1" height="1" fill="#446624" />
<rect x="43" y="19" width="1" height="1" fill="#446624" />
<rect x="46" y="19" width="1" height="1" fill="#446624" />
<rect x="47" y="19" width="1" height="1" fill="#446624" />
<rect x="50" y="19" width="1" height="1" fill="#446624" />
<rect x="51" y="19" width="1" height="1" fill="#446624" />
<rect x="59" y="19" width="1" height="1" fill="#446624" />
<rect x="60" y="19" width="1" height="1" fill="#446624" />
<rect x="62" y="19" width="1" height="1" fill="#446624" />
<rect x="63" y="19" width="1" height="1" fill="#446624" />
<rect x="64" y="19" width="1" height="1" fill="#446624" />
<rect x="67" y="19" width="1" height="1" fill="#446624" />
<rect x="68" y="19" width="1" height="1" fill="#446624" />
<rect x="69" y="19" width="1" height="1" fill="#446624" />
<rect x="70" y="19" width="1" height="1" fill="#446624" />
<rect x="76" y="19" width="1" height="1" fill="#446624" />
<rect x="78" y="19" width="1" height="1" fill="#446624" />
<rect x="79" y="19" width="1" height="1" fill="#446624" />
<rect x="80" y="19" width="1" height="1" fill="#446624" />
<rect x="82" y="19" width="1" height="1" fill="#446624" />
<rect x="83" y="19" width="1" height="1" fill="#446624" />
<rect x="84" y="19" width="1" height="1" fill="#446624" />
<rect x="86" y="19" width="1" height="1" fill="#446624" />
<rect x="89" y="19" width="1" height="1" fill="#446624" />
<rect x="90" y="19" width="1" height="1" fill="#446624" />
<rect x="91" y="19" width="1" height="1" fill="#446624" />
<rect x="93" y="19" width="1" height="1" fill="#446624" />
<rect x="94" y="19" width="1" height="1" fill="#446624" />
<rect x="95" y="19" width="1" height="1" fill="#446624" />
<rect x="96" y="19" width="1" height="1" fill="#446624" />
<rect x="1" y="20" width="1" height="1" fill="#3F6021" />
<rect x="4" y="20" width="1" height="1" fill="#3F6021" />
<rect x="5" y="20" width="1" height="1" fill="#3F6021" />
<rect x="6" y="20" width="1" height="1" fill="#3F6021" />
<rect x="7" y="20" width="1" height="1" fill="#3F6021" />
<rect x="8" y="20" width="1" height="1" fill="#3F6021" />
<rect x="14" y="20" width="1" height="1" fill="#446624" />
<rect x="18" y="20" width="1" height="1" fill="#446624" />
<rect x="25" y="20" width="1" height="1" fill="#446624" />
<rect x="26" y="20" width="1" height="1" fill="#446624" />
<rect x="32" y="20" width="1" height="1" fill="#446624" />
<rect x="40" y="20" width="1" height="1" fill="#446624" />
<rect x="41" y="20" width="1" height="1" fill="#446624" />
<rect x="42" y="20" width="1" height="1" fill="#446624" />
<rect x="46" y="20" width="1" height="1" fill="#446624" />
<rect x="49" y="20" width="1" height="1" fill="#446624" />
<rect x="50" y="20" width="1" height="1" fill="#446624" />
<rect x="51" y="20" width="1" height="1" fill="#446624" />
<rect x="58" y="20" width="1" height="1" fill="#446624" />
<rect x="59" y="20" width="1" height="1" fill="#446624" />
<rect x="60" y="20" width="1" height="1" fill="#446624" />
<rect x="61" y="20" width="1" height="1" fill="#446624" />
<rect x="62" y="20" width="1" height="1" fill="#446624" />
<rect x="68" y="20" width="1" height="1" fill="#446624" />
<rect x="69" y="20" width="1" height="1" fill="#446624" />
<rect x="70" y="20" width="1" height="1" fill="#446624" />
<rect x="77" y="20" width="1" height="1" fill="#446624" />
<rect x="81" y="20" width="1" height="1" fill="#446624" />
<rect x="86" y="20" width="1" height="1" fill="#446624" />
<rect x="87" y="20" width="1" height="1" fill="#446624" />
<rect x="88" y="20" width="1" height="1" fill="#446624" />
<rect x="89" y="20" width="1" height="1" fill="#446624" />
<rect x="94" y="20" width="1" height="1" fill="#446624" />
<rect x="1" y="21" width="1" height="1" fill="#3F6021" />
<rect x="2" y="21" width="1" height="1" fill="#3F6021" />
<rect x="47" y="21" width="1" height="1" fill="#446624" />
<rect x="48" y="21" width="1" height="1" fill="#446624" />
<rect x="49" y="21" width="1" height="1" fill="#446624" />
<rect x="60" y="21" width="1" height="1" fill="#446624" />
</svg>